{
	"asset":{
		"version":"2.0",
		"generator":"Maxon Cinema 4D 2026.0.0 (#200000219)"
	},
	"scenes":[{
		"nodes":[0]
	}],
	"nodes":[{
		"name":"Sphere",
		"mesh":0
	}],
	"meshes":[{
		"name":"Sphere",
		"primitives":[{
			"attributes":{
				"POSITION":1,
				"NORMAL":2,
				"TEXCOORD_0":3
			},
			"indices":0,
			"material":0
		}]
	}],
	"accessors":[{
		"min":[0],
		"bufferView":0,
		"type":"SCALAR",
		"max":[4103],
		"componentType":5123,
		"count":4104,
		"byteOffset":0
	},
	{
		"min":[-0.4628356397151947,
		-0.4644218683242798,
		-0.4612548351287842],
		"bufferView":1,
		"type":"VEC3",
		"max":[0.4628356397151947,
		0.4644218683242798,
		0.4612548351287842],
		"componentType":5126,
		"count":4104,
		"byteOffset":0
	},
	{
		"min":[-0.9965857863426209,
		-1.0,
		-0.9931987524032593],
		"bufferView":1,
		"type":"VEC3",
		"max":[0.9965857863426209,
		1.0,
		0.9931987524032593],
		"componentType":5126,
		"count":4104,
		"byteOffset":12
	},
	{
		"min":[0.0,
		0.0],
		"bufferView":1,
		"type":"VEC2",
		"max":[1.0,
		1.0],
		"componentType":5126,
		"count":4104,
		"byteOffset":24
	}],
	"bufferViews":[{
		"buffer":0,
		"target":34963,
		"byteOffset":0,
		"byteLength":8208
	},
	{
		"buffer":0,
		"target":34962,
		"byteOffset":8208,
		"byteLength":131328,
		"byteStride":32
	}],
	"buffers":[{
		"uri":"data:application/octet-stream;base64,",
		"byteLength":139536
	}],
	"materials":[{
		"pbrMetallicRoughness":{
			"baseColorFactor":[0.0,
			0.0,
			0.0,
			1.0],
			"metallicFactor":0.0,
			"roughnessFactor":0.5
		},
		"emissiveFactor":[0.0,
		0.0,
		0.0],
		"alphaMode":"OPAQUE",
		"doubleSided":false,
		"name":"Mat.1"
	}]
}