{
	"asset":{
		"version":"2.0",
		"generator":"Maxon Cinema 4D 2026.0.0 (#200000219)"
	},
	"scenes":[{
		"nodes":[0]
	}],
	"nodes":[{
		"name":"5spade",
		"children":[1,
		2,
		3,
		4,
		5,
		6,
		7,
		8,
		9]
	},
	{
		"name":"Extrude.1",
		"translation":[-3.6155431270599367,
		0.16781611740589143,
		-3.712120771408081],
		"rotation":[0.0,
		0.0,
		0.0,
		-1.0],
		"scale":[1.0,
		1.0,
		1.0],
		"children":[10]
	},
	{
		"name":"Extrude",
		"translation":[0.18598572909832,
		-0.6546915173530579,
		0.7495168447494507],
		"rotation":[0.0,
		0.0,
		0.0,
		-1.0],
		"scale":[1.0,
		1.0,
		1.0],
		"children":[11]
	},
	{
		"name":"Cylinder.4",
		"mesh":0,
		"translation":[-3.096172332763672,
		0.3554796874523163,
		-0.046671342104673389],
		"rotation":[0.0,
		0.0,
		0.0,
		-1.0],
		"scale":[1.0,
		1.0,
		1.0]
	},
	{
		"name":"Cylinder.3",
		"mesh":1,
		"translation":[2.454627513885498,
		0.19201895594596864,
		-0.04610975459218025],
		"rotation":[0.0,
		0.0,
		0.0,
		-1.0],
		"scale":[1.0,
		1.0,
		1.0]
	},
	{
		"name":"Cylinder.2",
		"mesh":2,
		"translation":[-2.7566611766815187,
		0.3554796874523163,
		4.114041805267334],
		"rotation":[0.0,
		0.0,
		0.0,
		-1.0],
		"scale":[1.0,
		1.0,
		1.0]
	},
	{
		"name":"Cylinder.1",
		"mesh":3,
		"translation":[1.5667816400527955,
		0.3554796874523163,
		5.67503023147583],
		"rotation":[0.0,
		0.0,
		0.0,
		-1.0],
		"scale":[1.0,
		1.0,
		1.0]
	},
	{
		"name":"Cylinder",
		"mesh":4,
		"translation":[0.5653316378593445,
		0.3554796874523163,
		-4.677875518798828],
		"rotation":[0.0,
		0.0,
		0.0,
		-1.0],
		"scale":[1.0,
		1.0,
		1.0]
	},
	{
		"name":"Boolean",
		"mesh":5,
		"translation":[0.18598572909832,
		-1.4799010753631592,
		0.7495168447494507],
		"rotation":[0.0,
		0.0,
		0.0,
		-1.0],
		"scale":[1.0,
		1.0,
		1.0]
	},
	{
		"name":"Cube",
		"mesh":6,
		"translation":[0.18858516216278077,
		-0.002640840131789446,
		0.7293362021446228],
		"rotation":[0.0,
		0.0,
		0.0,
		-1.0],
		"scale":[1.0,
		1.0,
		1.0]
	},
	{
		"name":"Extrude.1",
		"mesh":7
	},
	{
		"name":"Extrude",
		"mesh":8
	}],
	"meshes":[{
		"name":"Cylinder.4",
		"primitives":[{
			"attributes":{
				"POSITION":1,
				"NORMAL":2,
				"TEXCOORD_0":3
			},
			"indices":0,
			"material":0
		}]
	},
	{
		"name":"Cylinder.3",
		"primitives":[{
			"attributes":{
				"POSITION":5,
				"NORMAL":6,
				"TEXCOORD_0":7
			},
			"indices":4,
			"material":0
		}]
	},
	{
		"name":"Cylinder.2",
		"primitives":[{
			"attributes":{
				"POSITION":9,
				"NORMAL":10,
				"TEXCOORD_0":11
			},
			"indices":8,
			"material":0
		}]
	},
	{
		"name":"Cylinder.1",
		"primitives":[{
			"attributes":{
				"POSITION":13,
				"NORMAL":14,
				"TEXCOORD_0":15
			},
			"indices":12,
			"material":0
		}]
	},
	{
		"name":"Cylinder",
		"primitives":[{
			"attributes":{
				"POSITION":17,
				"NORMAL":18,
				"TEXCOORD_0":19
			},
			"indices":16,
			"material":0
		}]
	},
	{
		"name":"Boolean",
		"primitives":[{
			"attributes":{
				"POSITION":21,
				"NORMAL":22,
				"TEXCOORD_0":23
			},
			"indices":20,
			"material":0
		}]
	},
	{
		"name":"Cube",
		"primitives":[{
			"attributes":{
				"POSITION":25,
				"NORMAL":26,
				"TEXCOORD_0":27
			},
			"indices":24,
			"material":1
		}]
	},
	{
		"name":"Extrude.1",
		"primitives":[{
			"attributes":{
				"POSITION":29,
				"NORMAL":30,
				"TEXCOORD_0":31
			},
			"indices":28,
			"material":0
		}]
	},
	{
		"name":"Extrude",
		"primitives":[{
			"attributes":{
				"POSITION":33,
				"NORMAL":34,
				"TEXCOORD_0":35
			},
			"indices":32,
			"material":0
		}]
	}],
	"accessors":[{
		"bufferView":0,
		"type":"SCALAR",
		"componentType":5123,
		"count":2952,
		"byteOffset":0,
		"min":[0],
		"max":[2951]
	},
	{
		"bufferView":1,
		"type":"VEC3",
		"componentType":5126,
		"count":2952,
		"byteOffset":0,
		"min":[-1.400768756866455,
		-0.03505026921629906,
		-1.403860092163086],
		"max":[1.404891014099121,
		0.03505026921629906,
		1.403860092163086]
	},
	{
		"bufferView":1,
		"type":"VEC3",
		"componentType":5126,
		"count":2952,
		"byteOffset":12,
		"min":[-0.9986987113952637,
		-1.0,
		-0.9999191164970398],
		"max":[1.0,
		1.0,
		0.9999191164970398]
	},
	{
		"bufferView":1,
		"type":"VEC2",
		"componentType":5126,
		"count":2952,
		"byteOffset":24,
		"min":[0.0,
		0.0],
		"max":[1.0,
		1.0]
	},
	{
		"bufferView":2,
		"type":"SCALAR",
		"componentType":5123,
		"count":2952,
		"byteOffset":0,
		"min":[0],
		"max":[2951]
	},
	{
		"bufferView":3,
		"type":"VEC3",
		"componentType":5126,
		"count":2952,
		"byteOffset":0,
		"min":[-2.6415092945098879,
		-0.044467564672231677,
		-2.6473388671875],
		"max":[2.649282932281494,
		0.044467564672231677,
		2.6473388671875]
	},
	{
		"bufferView":3,
		"type":"VEC3",
		"componentType":5126,
		"count":2952,
		"byteOffset":12,
		"min":[-0.9986987113952637,
		-1.0,
		-0.9999191164970398],
		"max":[1.0,
		1.0,
		0.9999191164970398]
	},
	{
		"bufferView":3,
		"type":"VEC2",
		"componentType":5126,
		"count":2952,
		"byteOffset":24,
		"min":[0.0,
		0.0],
		"max":[1.0,
		1.0]
	},
	{
		"bufferView":4,
		"type":"SCALAR",
		"componentType":5123,
		"count":2952,
		"byteOffset":0,
		"min":[0],
		"max":[2951]
	},
	{
		"bufferView":5,
		"type":"VEC3",
		"componentType":5126,
		"count":2952,
		"byteOffset":0,
		"min":[-0.9744880795478821,
		-0.024844253435730935,
		-0.976638674736023],
		"max":[0.9773558378219605,
		0.024844253435730935,
		0.976638674736023]
	},
	{
		"bufferView":5,
		"type":"VEC3",
		"componentType":5126,
		"count":2952,
		"byteOffset":12,
		"min":[-0.9986987113952637,
		-1.0,
		-0.9999191164970398],
		"max":[1.0,
		1.0,
		0.9999191164970398]
	},
	{
		"bufferView":5,
		"type":"VEC2",
		"componentType":5126,
		"count":2952,
		"byteOffset":24,
		"min":[0.0,
		0.0],
		"max":[1.0,
		1.0]
	},
	{
		"bufferView":6,
		"type":"SCALAR",
		"componentType":5123,
		"count":2952,
		"byteOffset":0,
		"min":[0],
		"max":[2951]
	},
	{
		"bufferView":7,
		"type":"VEC3",
		"componentType":5126,
		"count":2952,
		"byteOffset":0,
		"min":[-1.512312889099121,
		-0.038555920124053958,
		-1.5156503915786744],
		"max":[1.51676344871521,
		0.038555920124053958,
		1.5156503915786744]
	},
	{
		"bufferView":7,
		"type":"VEC3",
		"componentType":5126,
		"count":2952,
		"byteOffset":12,
		"min":[-0.9986987113952637,
		-1.0,
		-0.9999191164970398],
		"max":[1.0,
		1.0,
		0.9999191164970398]
	},
	{
		"bufferView":7,
		"type":"VEC2",
		"componentType":5126,
		"count":2952,
		"byteOffset":24,
		"min":[0.0,
		0.0],
		"max":[1.0,
		1.0]
	},
	{
		"bufferView":8,
		"type":"SCALAR",
		"componentType":5123,
		"count":2952,
		"byteOffset":0,
		"min":[0],
		"max":[2951]
	},
	{
		"bufferView":9,
		"type":"VEC3",
		"componentType":5126,
		"count":2952,
		"byteOffset":0,
		"min":[-1.800896167755127,
		-0.04591325670480728,
		-1.8048704862594605],
		"max":[1.8061959743499756,
		0.04591325670480728,
		1.8048704862594605]
	},
	{
		"bufferView":9,
		"type":"VEC3",
		"componentType":5126,
		"count":2952,
		"byteOffset":12,
		"min":[-0.9986987113952637,
		-1.0,
		-0.9999191164970398],
		"max":[1.0,
		1.0,
		0.9999191164970398]
	},
	{
		"bufferView":9,
		"type":"VEC2",
		"componentType":5126,
		"count":2952,
		"byteOffset":24,
		"min":[0.0,
		0.0],
		"max":[1.0,
		1.0]
	},
	{
		"bufferView":10,
		"type":"SCALAR",
		"componentType":5123,
		"count":1008,
		"byteOffset":0,
		"min":[0],
		"max":[1007]
	},
	{
		"bufferView":11,
		"type":"VEC3",
		"componentType":5126,
		"count":1008,
		"byteOffset":0,
		"min":[-5.67979621887207,
		1.4474209547042847,
		-8.844843864440918],
		"max":[5.684994697570801,
		1.7829234600067139,
		8.804482460021973]
	},
	{
		"bufferView":11,
		"type":"VEC3",
		"componentType":5126,
		"count":1008,
		"byteOffset":12,
		"min":[-1.0,
		-1.0,
		-1.0],
		"max":[1.0,
		1.0,
		1.0]
	},
	{
		"bufferView":11,
		"type":"VEC2",
		"componentType":5126,
		"count":1008,
		"byteOffset":24,
		"min":[-0.0038793161511421205,
		0.0],
		"max":[1.0038795471191407,
		1.0]
	},
	{
		"bufferView":12,
		"type":"SCALAR",
		"componentType":5123,
		"count":372,
		"byteOffset":0,
		"min":[0],
		"max":[371]
	},
	{
		"bufferView":13,
		"type":"VEC3",
		"componentType":5126,
		"count":372,
		"byteOffset":0,
		"min":[-6.206188201904297,
		-0.18321429193019868,
		-9.309282302856446],
		"max":[6.206188201904297,
		0.18321429193019868,
		9.309282302856446]
	},
	{
		"bufferView":13,
		"type":"VEC3",
		"componentType":5126,
		"count":372,
		"byteOffset":12,
		"min":[-0.9990615248680115,
		-1.0,
		-0.9990615248680115],
		"max":[0.9990615248680115,
		1.0,
		0.9990615248680115]
	},
	{
		"bufferView":13,
		"type":"VEC2",
		"componentType":5126,
		"count":372,
		"byteOffset":24,
		"min":[-0.0038793161511421205,
		0.0],
		"max":[1.0038795471191407,
		1.0]
	},
	{
		"bufferView":14,
		"type":"SCALAR",
		"componentType":5123,
		"count":864,
		"byteOffset":0,
		"min":[0],
		"max":[863]
	},
	{
		"bufferView":15,
		"type":"VEC3",
		"componentType":5126,
		"count":864,
		"byteOffset":0,
		"min":[-0.9539029598236084,
		0.0,
		-1.153014898300171],
		"max":[0.9556898474693298,
		0.10000000149011612,
		0.813759446144104]
	},
	{
		"bufferView":15,
		"type":"VEC3",
		"componentType":5126,
		"count":864,
		"byteOffset":12,
		"min":[-0.9999997615814209,
		-1.0,
		-0.8115699291229248],
		"max":[0.9999997615814209,
		1.0,
		0.9999997615814209]
	},
	{
		"bufferView":15,
		"type":"VEC2",
		"componentType":5126,
		"count":864,
		"byteOffset":24,
		"min":[0.0,
		0.0],
		"max":[1.0,
		1.0]
	},
	{
		"bufferView":16,
		"type":"SCALAR",
		"componentType":5123,
		"count":4404,
		"byteOffset":0,
		"min":[0],
		"max":[4403]
	},
	{
		"bufferView":17,
		"type":"VEC3",
		"componentType":5126,
		"count":4404,
		"byteOffset":0,
		"min":[-4.471752166748047,
		0.8116371035575867,
		-8.159369468688965],
		"max":[-3.131625175476074,
		0.9116371273994446,
		-6.063734531402588]
	},
	{
		"bufferView":17,
		"type":"VEC3",
		"componentType":5126,
		"count":4404,
		"byteOffset":12,
		"min":[-1.0,
		-1.0,
		-1.0],
		"max":[1.0,
		1.0,
		1.0]
	},
	{
		"bufferView":17,
		"type":"VEC2",
		"componentType":5126,
		"count":4404,
		"byteOffset":24,
		"min":[0.0,
		0.0],
		"max":[1.0,
		1.0]
	}],
	"bufferViews":[{
		"buffer":0,
		"target":34963,
		"byteOffset":0,
		"byteLength":5904
	},
	{
		"buffer":0,
		"target":34962,
		"byteOffset":5904,
		"byteLength":94464,
		"byteStride":32
	},
	{
		"buffer":1,
		"target":34963,
		"byteOffset":0,
		"byteLength":5904
	},
	{
		"buffer":1,
		"target":34962,
		"byteOffset":5904,
		"byteLength":94464,
		"byteStride":32
	},
	{
		"buffer":2,
		"target":34963,
		"byteOffset":0,
		"byteLength":5904
	},
	{
		"buffer":2,
		"target":34962,
		"byteOffset":5904,
		"byteLength":94464,
		"byteStride":32
	},
	{
		"buffer":3,
		"target":34963,
		"byteOffset":0,
		"byteLength":5904
	},
	{
		"buffer":3,
		"target":34962,
		"byteOffset":5904,
		"byteLength":94464,
		"byteStride":32
	},
	{
		"buffer":4,
		"target":34963,
		"byteOffset":0,
		"byteLength":5904
	},
	{
		"buffer":4,
		"target":34962,
		"byteOffset":5904,
		"byteLength":94464,
		"byteStride":32
	},
	{
		"buffer":5,
		"target":34963,
		"byteOffset":0,
		"byteLength":2016
	},
	{
		"buffer":5,
		"target":34962,
		"byteOffset":2016,
		"byteLength":32256,
		"byteStride":32
	},
	{
		"buffer":6,
		"target":34963,
		"byteOffset":0,
		"byteLength":744
	},
	{
		"buffer":6,
		"target":34962,
		"byteOffset":744,
		"byteLength":11904,
		"byteStride":32
	},
	{
		"buffer":7,
		"target":34963,
		"byteOffset":0,
		"byteLength":1728
	},
	{
		"buffer":7,
		"target":34962,
		"byteOffset":1728,
		"byteLength":27648,
		"byteStride":32
	},
	{
		"buffer":8,
		"target":34963,
		"byteOffset":0,
		"byteLength":8808
	},
	{
		"buffer":8,
		"target":34962,
		"byteOffset":8808,
		"byteLength":140928,
		"byteStride":32
	}],
	"buffers":[{
		"uri":"data:application/octet-stream;base64,",
		"byteLength":100368
	},
	{
		"uri":"data:application/octet-stream;base64,",
		"byteLength":100368
	},
	{
		"uri":"data:application/octet-stream;base64,",
		"byteLength":100368
	},
	{
		"uri":"data:application/octet-stream;base64,",
		"byteLength":100368
	},
	{
		"uri":"data:application/octet-stream;base64,",
		"byteLength":100368
	},
	{
		"uri":"data:application/octet-stream;base64,",
		"byteLength":34272
	},
	{
		"uri":"data:application/octet-stream;base64,",
		"byteLength":12648
	},
	{
		"uri":"data:application/octet-stream;base64,",
		"byteLength":29376
	},
	{
		"uri":"data:application/octet-stream;base64,",
		"byteLength":149736
	}],
	"materials":[{
		"pbrMetallicRoughness":{
			"baseColorFactor":[0.0,
			0.0,
			0.0,
			1.0],
			"metallicFactor":0.63,
			"roughnessFactor":0.32
		},
		"emissiveFactor":[0.0,
		0.0,
		0.0],
		"alphaMode":"OPAQUE",
		"doubleSided":false,
		"name":"Mat.1"
	},
	{
		"pbrMetallicRoughness":{
			"baseColorFactor":[0.9999999403953552,
			0.9999999403953552,
			0.9999999403953552,
			1.0],
			"metallicFactor":0.63,
			"roughnessFactor":0.32
		},
		"emissiveFactor":[0.0,
		0.0,
		0.0],
		"alphaMode":"OPAQUE",
		"doubleSided":false,
		"name":"Mat.1"
	}]
}