{
	"asset":{
		"version":"2.0",
		"generator":"Maxon Cinema 4D 2026.0.0 (#200000219)"
	},
	"scenes":[{
		"nodes":[0]
	}],
	"nodes":[{
		"name":"10spade",
		"children":[1,
		2,
		3,
		4,
		5,
		6,
		7,
		8,
		9,
		10,
		11,
		12,
		13,
		14,
		15]
	},
	{
		"name":"Cube",
		"mesh":0,
		"translation":[-32.537960052490237,
		0.18667469918727876,
		6.580789566040039],
		"rotation":[0.0,
		0.0,
		0.0,
		-1.0],
		"scale":[1.0,
		1.0,
		1.0]
	},
	{
		"name":"Boolean",
		"mesh":1,
		"translation":[0.18598572909832,
		-1.4799010753631592,
		0.7495168447494507],
		"rotation":[0.0,
		0.0,
		0.0,
		-1.0],
		"scale":[1.0,
		1.0,
		1.0]
	},
	{
		"name":"Extrude.1",
		"translation":[-3.6155431270599367,
		0.16781611740589143,
		-3.712120771408081],
		"rotation":[0.0,
		0.0,
		0.0,
		-1.0],
		"scale":[1.0,
		1.0,
		1.0],
		"children":[16]
	},
	{
		"name":"Cylinder.5",
		"mesh":2,
		"translation":[2.1570703983306886,
		0.3554796874523163,
		-1.2243361473083497],
		"rotation":[0.0,
		0.0,
		0.0,
		-1.0],
		"scale":[1.0,
		1.0,
		1.0]
	},
	{
		"name":"Cylinder.2",
		"mesh":3,
		"translation":[0.3925359845161438,
		0.3554796874523163,
		1.9009639024734498],
		"rotation":[0.0,
		0.0,
		0.0,
		-1.0],
		"scale":[1.0,
		1.0,
		1.0]
	},
	{
		"name":"Cylinder.1",
		"mesh":4,
		"translation":[1.325526237487793,
		0.3554796874523163,
		-4.558204650878906],
		"rotation":[0.0,
		0.0,
		0.0,
		-1.0],
		"scale":[1.0,
		1.0,
		1.0]
	},
	{
		"name":"Cylinder.2",
		"mesh":5,
		"translation":[0.865304172039032,
		0.3716586232185364,
		6.97523307800293],
		"rotation":[0.0,
		-1.0,
		0.0,
		-6.123234262925839e-17],
		"scale":[1.0,
		1.0,
		1.0]
	},
	{
		"name":"Cylinder.1",
		"mesh":6,
		"translation":[1.1264632940292359,
		0.3716586232185364,
		4.868706226348877],
		"rotation":[0.0,
		-1.0,
		0.0,
		-6.123234262925839e-17],
		"scale":[1.0,
		1.0,
		1.0]
	},
	{
		"name":"Cylinder",
		"mesh":7,
		"translation":[3.2560768127441408,
		0.3716586232185364,
		5.848371505737305],
		"rotation":[0.0,
		-1.0,
		0.0,
		-6.123234262925839e-17],
		"scale":[1.0,
		1.0,
		1.0]
	},
	{
		"name":"Cube.1",
		"mesh":8,
		"translation":[3.248654842376709,
		0.18668778240680695,
		1.6767131090164185],
		"rotation":[0.0,
		0.0,
		0.0,
		-1.0],
		"scale":[1.0,
		1.0,
		1.0]
	},
	{
		"name":"Cube",
		"mesh":9,
		"translation":[-3.0139970779418947,
		0.17065006494522096,
		3.334552526473999],
		"rotation":[0.0,
		0.0,
		0.0,
		-1.0],
		"scale":[1.0,
		1.0,
		1.0]
	},
	{
		"name":"Extrude",
		"translation":[0.18598572909832,
		-0.6546915173530579,
		0.7495168447494507],
		"rotation":[0.0,
		0.0,
		0.0,
		-1.0],
		"scale":[1.0,
		1.0,
		1.0],
		"children":[17]
	},
	{
		"name":"Cube",
		"mesh":10,
		"translation":[0.18858516216278077,
		-0.002640840131789446,
		0.7293362021446228],
		"rotation":[0.0,
		0.0,
		0.0,
		-1.0],
		"scale":[1.0,
		1.0,
		1.0]
	},
	{
		"name":"Cylinder.3",
		"mesh":11,
		"translation":[-3.663996458053589,
		0.3554796874523163,
		-1.2243361473083497],
		"rotation":[0.0,
		0.0,
		0.0,
		-1.0],
		"scale":[1.0,
		1.0,
		1.0]
	},
	{
		"name":"Cube.2",
		"mesh":12,
		"translation":[-2.9794411659240724,
		0.17065006494522096,
		7.1845526695251469],
		"rotation":[0.0,
		0.0,
		0.0,
		-1.0],
		"scale":[1.0,
		1.0,
		1.0]
	},
	{
		"name":"Extrude.1",
		"mesh":13
	},
	{
		"name":"Extrude",
		"mesh":14
	}],
	"meshes":[{
		"name":"Cube",
		"primitives":[{
			"attributes":{
				"POSITION":1,
				"NORMAL":2,
				"TEXCOORD_0":3
			},
			"indices":0,
			"material":0
		}]
	},
	{
		"name":"Boolean",
		"primitives":[{
			"attributes":{
				"POSITION":5,
				"NORMAL":6,
				"TEXCOORD_0":7
			},
			"indices":4,
			"material":0
		}]
	},
	{
		"name":"Cylinder.5",
		"primitives":[{
			"attributes":{
				"POSITION":9,
				"NORMAL":10,
				"TEXCOORD_0":11
			},
			"indices":8,
			"material":0
		}]
	},
	{
		"name":"Cylinder.2",
		"primitives":[{
			"attributes":{
				"POSITION":13,
				"NORMAL":14,
				"TEXCOORD_0":15
			},
			"indices":12,
			"material":0
		}]
	},
	{
		"name":"Cylinder.1",
		"primitives":[{
			"attributes":{
				"POSITION":17,
				"NORMAL":18,
				"TEXCOORD_0":19
			},
			"indices":16,
			"material":0
		}]
	},
	{
		"name":"Cylinder.2",
		"primitives":[{
			"attributes":{
				"POSITION":21,
				"NORMAL":22,
				"TEXCOORD_0":23
			},
			"indices":20,
			"material":0
		}]
	},
	{
		"name":"Cylinder.1",
		"primitives":[{
			"attributes":{
				"POSITION":25,
				"NORMAL":26,
				"TEXCOORD_0":27
			},
			"indices":24,
			"material":0
		}]
	},
	{
		"name":"Cylinder",
		"primitives":[{
			"attributes":{
				"POSITION":29,
				"NORMAL":30,
				"TEXCOORD_0":31
			},
			"indices":28,
			"material":0
		}]
	},
	{
		"name":"Cube.1",
		"primitives":[{
			"attributes":{
				"POSITION":33,
				"NORMAL":34,
				"TEXCOORD_0":35
			},
			"indices":32,
			"material":0
		}]
	},
	{
		"name":"Cube",
		"primitives":[{
			"attributes":{
				"POSITION":37,
				"NORMAL":38,
				"TEXCOORD_0":39
			},
			"indices":36,
			"material":0
		}]
	},
	{
		"name":"Cube",
		"primitives":[{
			"attributes":{
				"POSITION":41,
				"NORMAL":42,
				"TEXCOORD_0":43
			},
			"indices":40,
			"material":1
		}]
	},
	{
		"name":"Cylinder.3",
		"primitives":[{
			"attributes":{
				"POSITION":45,
				"NORMAL":46,
				"TEXCOORD_0":47
			},
			"indices":44,
			"material":0
		}]
	},
	{
		"name":"Cube.2",
		"primitives":[{
			"attributes":{
				"POSITION":49,
				"NORMAL":50,
				"TEXCOORD_0":51
			},
			"indices":48,
			"material":0
		}]
	},
	{
		"name":"Extrude.1",
		"primitives":[{
			"attributes":{
				"POSITION":53,
				"NORMAL":54,
				"TEXCOORD_0":55
			},
			"indices":52,
			"material":0
		}]
	},
	{
		"name":"Extrude",
		"primitives":[{
			"attributes":{
				"POSITION":57,
				"NORMAL":58,
				"TEXCOORD_0":59
			},
			"indices":56,
			"material":0
		}]
	}],
	"accessors":[{
		"bufferView":0,
		"type":"SCALAR",
		"componentType":5123,
		"count":36,
		"byteOffset":0,
		"min":[0],
		"max":[35]
	},
	{
		"bufferView":1,
		"type":"VEC3",
		"componentType":5126,
		"count":36,
		"byteOffset":0,
		"min":[-1.275978446006775,
		-0.30115509033203127,
		-1.0399949550628663],
		"max":[1.275978446006775,
		0.30115509033203127,
		1.0399949550628663]
	},
	{
		"bufferView":1,
		"type":"VEC3",
		"componentType":5126,
		"count":36,
		"byteOffset":12,
		"min":[-1.0,
		-1.0,
		-1.0],
		"max":[1.0,
		1.0,
		1.0]
	},
	{
		"bufferView":1,
		"type":"VEC2",
		"componentType":5126,
		"count":36,
		"byteOffset":24,
		"min":[0.0,
		0.0],
		"max":[1.0,
		1.0]
	},
	{
		"bufferView":2,
		"type":"SCALAR",
		"componentType":5123,
		"count":1008,
		"byteOffset":0,
		"min":[0],
		"max":[1007]
	},
	{
		"bufferView":3,
		"type":"VEC3",
		"componentType":5126,
		"count":1008,
		"byteOffset":0,
		"min":[-5.67979621887207,
		1.4474209547042847,
		-8.844843864440918],
		"max":[5.684994697570801,
		1.7829234600067139,
		8.804482460021973]
	},
	{
		"bufferView":3,
		"type":"VEC3",
		"componentType":5126,
		"count":1008,
		"byteOffset":12,
		"min":[-1.0,
		-1.0,
		-1.0],
		"max":[1.0,
		1.0,
		1.0]
	},
	{
		"bufferView":3,
		"type":"VEC2",
		"componentType":5126,
		"count":1008,
		"byteOffset":24,
		"min":[-0.0038793161511421205,
		0.0],
		"max":[1.0038795471191407,
		1.0]
	},
	{
		"bufferView":4,
		"type":"SCALAR",
		"componentType":5123,
		"count":2952,
		"byteOffset":0,
		"min":[0],
		"max":[2951]
	},
	{
		"bufferView":5,
		"type":"VEC3",
		"componentType":5126,
		"count":2952,
		"byteOffset":0,
		"min":[-0.7000675797462463,
		-0.03505026921629906,
		-0.7016125321388245],
		"max":[0.7021277546882629,
		0.03505026921629906,
		0.7016125321388245]
	},
	{
		"bufferView":5,
		"type":"VEC3",
		"componentType":5126,
		"count":2952,
		"byteOffset":12,
		"min":[-0.9986987113952637,
		-1.0,
		-0.9999191164970398],
		"max":[1.0,
		1.0,
		0.9999191164970398]
	},
	{
		"bufferView":5,
		"type":"VEC2",
		"componentType":5126,
		"count":2952,
		"byteOffset":24,
		"min":[0.0,
		0.0],
		"max":[1.0,
		1.0]
	},
	{
		"bufferView":6,
		"type":"SCALAR",
		"componentType":5123,
		"count":2952,
		"byteOffset":0,
		"min":[0],
		"max":[2951]
	},
	{
		"bufferView":7,
		"type":"VEC3",
		"componentType":5126,
		"count":2952,
		"byteOffset":0,
		"min":[-1.374807596206665,
		-0.03505026921629906,
		-1.377841591835022],
		"max":[1.378853440284729,
		0.03505026921629906,
		1.377841591835022]
	},
	{
		"bufferView":7,
		"type":"VEC3",
		"componentType":5126,
		"count":2952,
		"byteOffset":12,
		"min":[-0.9986987113952637,
		-1.0,
		-0.9999191164970398],
		"max":[1.0,
		1.0,
		0.9999191164970398]
	},
	{
		"bufferView":7,
		"type":"VEC2",
		"componentType":5126,
		"count":2952,
		"byteOffset":24,
		"min":[0.0,
		0.0],
		"max":[1.0,
		1.0]
	},
	{
		"bufferView":8,
		"type":"SCALAR",
		"componentType":5123,
		"count":2952,
		"byteOffset":0,
		"min":[0],
		"max":[2951]
	},
	{
		"bufferView":9,
		"type":"VEC3",
		"componentType":5126,
		"count":2952,
		"byteOffset":0,
		"min":[-1.9869544506072999,
		-0.0506567507982254,
		-1.9913393259048463],
		"max":[1.9928016662597657,
		0.0506567507982254,
		1.9913393259048463]
	},
	{
		"bufferView":9,
		"type":"VEC3",
		"componentType":5126,
		"count":2952,
		"byteOffset":12,
		"min":[-0.9986987113952637,
		-1.0,
		-0.9999191164970398],
		"max":[1.0,
		1.0,
		0.9999191164970398]
	},
	{
		"bufferView":9,
		"type":"VEC2",
		"componentType":5126,
		"count":2952,
		"byteOffset":24,
		"min":[0.0,
		0.0],
		"max":[1.0,
		1.0]
	},
	{
		"bufferView":10,
		"type":"SCALAR",
		"componentType":5123,
		"count":198,
		"byteOffset":0,
		"min":[0],
		"max":[197]
	},
	{
		"bufferView":11,
		"type":"VEC3",
		"componentType":5126,
		"count":198,
		"byteOffset":0,
		"min":[-0.4949217736721039,
		-0.035792212933301929,
		-0.8572296500205994],
		"max":[0.9898435473442078,
		0.035792212933301929,
		0.8572296500205994]
	},
	{
		"bufferView":11,
		"type":"VEC3",
		"componentType":5126,
		"count":198,
		"byteOffset":12,
		"min":[-1.0,
		-1.0,
		-0.866019070148468],
		"max":[0.5000110268592835,
		1.0,
		0.866019070148468]
	},
	{
		"bufferView":11,
		"type":"VEC2",
		"componentType":5126,
		"count":198,
		"byteOffset":24,
		"min":[0.0,
		0.0],
		"max":[1.0,
		1.0]
	},
	{
		"bufferView":12,
		"type":"SCALAR",
		"componentType":5123,
		"count":198,
		"byteOffset":0,
		"min":[0],
		"max":[197]
	},
	{
		"bufferView":13,
		"type":"VEC3",
		"componentType":5126,
		"count":198,
		"byteOffset":0,
		"min":[-0.4172802269458771,
		-0.022619402036070825,
		-0.7227505445480347],
		"max":[0.8345604538917542,
		0.022619402036070825,
		0.7227505445480347]
	},
	{
		"bufferView":13,
		"type":"VEC3",
		"componentType":5126,
		"count":198,
		"byteOffset":12,
		"min":[-1.0,
		-1.0,
		-0.866019070148468],
		"max":[0.5000110268592835,
		1.0,
		0.866019070148468]
	},
	{
		"bufferView":13,
		"type":"VEC2",
		"componentType":5126,
		"count":198,
		"byteOffset":24,
		"min":[0.0,
		0.0],
		"max":[1.0,
		1.0]
	},
	{
		"bufferView":14,
		"type":"SCALAR",
		"componentType":5123,
		"count":198,
		"byteOffset":0,
		"min":[0],
		"max":[197]
	},
	{
		"bufferView":15,
		"type":"VEC3",
		"componentType":5126,
		"count":198,
		"byteOffset":0,
		"min":[-0.7281739115715027,
		-0.035792212933301929,
		-1.261234164237976],
		"max":[1.4563478231430054,
		0.035792212933301929,
		1.261234164237976]
	},
	{
		"bufferView":15,
		"type":"VEC3",
		"componentType":5126,
		"count":198,
		"byteOffset":12,
		"min":[-1.0,
		-1.0,
		-0.866019070148468],
		"max":[0.5000110268592835,
		1.0,
		0.866019070148468]
	},
	{
		"bufferView":15,
		"type":"VEC2",
		"componentType":5126,
		"count":198,
		"byteOffset":24,
		"min":[0.0,
		0.0],
		"max":[1.0,
		1.0]
	},
	{
		"bufferView":16,
		"type":"SCALAR",
		"componentType":5123,
		"count":36,
		"byteOffset":0,
		"min":[0],
		"max":[35]
	},
	{
		"bufferView":17,
		"type":"VEC3",
		"componentType":5126,
		"count":36,
		"byteOffset":0,
		"min":[-0.754806399345398,
		-0.04084788262844086,
		-1.1825841665267945],
		"max":[0.754806399345398,
		0.04084788262844086,
		1.1825841665267945]
	},
	{
		"bufferView":17,
		"type":"VEC3",
		"componentType":5126,
		"count":36,
		"byteOffset":12,
		"min":[-1.0,
		-1.0,
		-1.0],
		"max":[1.0,
		1.0,
		1.0]
	},
	{
		"bufferView":17,
		"type":"VEC2",
		"componentType":5126,
		"count":36,
		"byteOffset":24,
		"min":[0.0,
		0.0],
		"max":[1.0,
		1.0]
	},
	{
		"bufferView":18,
		"type":"SCALAR",
		"componentType":5123,
		"count":36,
		"byteOffset":0,
		"min":[0],
		"max":[35]
	},
	{
		"bufferView":19,
		"type":"VEC3",
		"componentType":5126,
		"count":36,
		"byteOffset":0,
		"min":[-0.6637961864471436,
		-0.172810897231102,
		-1.0399949550628663],
		"max":[0.6637961864471436,
		0.172810897231102,
		1.0399949550628663]
	},
	{
		"bufferView":19,
		"type":"VEC3",
		"componentType":5126,
		"count":36,
		"byteOffset":12,
		"min":[-1.0,
		-1.0,
		-1.0],
		"max":[1.0,
		1.0,
		1.0]
	},
	{
		"bufferView":19,
		"type":"VEC2",
		"componentType":5126,
		"count":36,
		"byteOffset":24,
		"min":[0.0,
		0.0],
		"max":[1.0,
		1.0]
	},
	{
		"bufferView":20,
		"type":"SCALAR",
		"componentType":5123,
		"count":372,
		"byteOffset":0,
		"min":[0],
		"max":[371]
	},
	{
		"bufferView":21,
		"type":"VEC3",
		"componentType":5126,
		"count":372,
		"byteOffset":0,
		"min":[-6.206188201904297,
		-0.18321429193019868,
		-9.309282302856446],
		"max":[6.206188201904297,
		0.18321429193019868,
		9.309282302856446]
	},
	{
		"bufferView":21,
		"type":"VEC3",
		"componentType":5126,
		"count":372,
		"byteOffset":12,
		"min":[-0.9990615248680115,
		-1.0,
		-0.9990615248680115],
		"max":[0.9990615248680115,
		1.0,
		0.9990615248680115]
	},
	{
		"bufferView":21,
		"type":"VEC2",
		"componentType":5126,
		"count":372,
		"byteOffset":24,
		"min":[-0.0038793161511421205,
		0.0],
		"max":[1.0038795471191407,
		1.0]
	},
	{
		"bufferView":22,
		"type":"SCALAR",
		"componentType":5123,
		"count":2952,
		"byteOffset":0,
		"min":[0],
		"max":[2951]
	},
	{
		"bufferView":23,
		"type":"VEC3",
		"componentType":5126,
		"count":2952,
		"byteOffset":0,
		"min":[-0.9839640855789185,
		-0.04926411062479019,
		-0.9861355423927307],
		"max":[0.9868597388267517,
		0.04926411062479019,
		0.9861355423927307]
	},
	{
		"bufferView":23,
		"type":"VEC3",
		"componentType":5126,
		"count":2952,
		"byteOffset":12,
		"min":[-0.9986987113952637,
		-1.0,
		-0.9999191164970398],
		"max":[1.0,
		1.0,
		0.9999191164970398]
	},
	{
		"bufferView":23,
		"type":"VEC2",
		"componentType":5126,
		"count":2952,
		"byteOffset":24,
		"min":[0.0,
		0.0],
		"max":[1.0,
		1.0]
	},
	{
		"bufferView":24,
		"type":"SCALAR",
		"componentType":5123,
		"count":36,
		"byteOffset":0,
		"min":[0],
		"max":[35]
	},
	{
		"bufferView":25,
		"type":"VEC3",
		"componentType":5126,
		"count":36,
		"byteOffset":0,
		"min":[-0.6637961864471436,
		-0.14935186505317689,
		-1.0399949550628663],
		"max":[0.6637961864471436,
		0.14935186505317689,
		1.0399949550628663]
	},
	{
		"bufferView":25,
		"type":"VEC3",
		"componentType":5126,
		"count":36,
		"byteOffset":12,
		"min":[-1.0,
		-1.0,
		-1.0],
		"max":[1.0,
		1.0,
		1.0]
	},
	{
		"bufferView":25,
		"type":"VEC2",
		"componentType":5126,
		"count":36,
		"byteOffset":24,
		"min":[0.0,
		0.0],
		"max":[1.0,
		1.0]
	},
	{
		"bufferView":26,
		"type":"SCALAR",
		"componentType":5123,
		"count":864,
		"byteOffset":0,
		"min":[0],
		"max":[863]
	},
	{
		"bufferView":27,
		"type":"VEC3",
		"componentType":5126,
		"count":864,
		"byteOffset":0,
		"min":[-0.9539029598236084,
		0.0,
		-1.153014898300171],
		"max":[0.9556898474693298,
		0.10000000149011612,
		0.813759446144104]
	},
	{
		"bufferView":27,
		"type":"VEC3",
		"componentType":5126,
		"count":864,
		"byteOffset":12,
		"min":[-0.9999997615814209,
		-1.0,
		-0.8115699291229248],
		"max":[0.9999997615814209,
		1.0,
		0.9999997615814209]
	},
	{
		"bufferView":27,
		"type":"VEC2",
		"componentType":5126,
		"count":864,
		"byteOffset":24,
		"min":[0.0,
		0.0],
		"max":[1.0,
		1.0]
	},
	{
		"bufferView":28,
		"type":"SCALAR",
		"componentType":5123,
		"count":5928,
		"byteOffset":0,
		"min":[0],
		"max":[5927]
	},
	{
		"bufferView":29,
		"type":"VEC3",
		"componentType":5126,
		"count":5928,
		"byteOffset":0,
		"min":[-4.46425724029541,
		0.8116371035575867,
		-8.160867691040039],
		"max":[-2.4255852699279787,
		0.9116371273994446,
		-6.063734531402588]
	},
	{
		"bufferView":29,
		"type":"VEC3",
		"componentType":5126,
		"count":5928,
		"byteOffset":12,
		"min":[-1.0,
		-1.0,
		-1.0],
		"max":[1.0,
		1.0,
		1.0]
	},
	{
		"bufferView":29,
		"type":"VEC2",
		"componentType":5126,
		"count":5928,
		"byteOffset":24,
		"min":[0.0,
		0.0],
		"max":[1.0,
		1.0]
	}],
	"bufferViews":[{
		"buffer":0,
		"target":34963,
		"byteOffset":0,
		"byteLength":72
	},
	{
		"buffer":0,
		"target":34962,
		"byteOffset":72,
		"byteLength":1152,
		"byteStride":32
	},
	{
		"buffer":1,
		"target":34963,
		"byteOffset":0,
		"byteLength":2016
	},
	{
		"buffer":1,
		"target":34962,
		"byteOffset":2016,
		"byteLength":32256,
		"byteStride":32
	},
	{
		"buffer":2,
		"target":34963,
		"byteOffset":0,
		"byteLength":5904
	},
	{
		"buffer":2,
		"target":34962,
		"byteOffset":5904,
		"byteLength":94464,
		"byteStride":32
	},
	{
		"buffer":3,
		"target":34963,
		"byteOffset":0,
		"byteLength":5904
	},
	{
		"buffer":3,
		"target":34962,
		"byteOffset":5904,
		"byteLength":94464,
		"byteStride":32
	},
	{
		"buffer":4,
		"target":34963,
		"byteOffset":0,
		"byteLength":5904
	},
	{
		"buffer":4,
		"target":34962,
		"byteOffset":5904,
		"byteLength":94464,
		"byteStride":32
	},
	{
		"buffer":5,
		"target":34963,
		"byteOffset":0,
		"byteLength":396
	},
	{
		"buffer":5,
		"target":34962,
		"byteOffset":396,
		"byteLength":6336,
		"byteStride":32
	},
	{
		"buffer":6,
		"target":34963,
		"byteOffset":0,
		"byteLength":396
	},
	{
		"buffer":6,
		"target":34962,
		"byteOffset":396,
		"byteLength":6336,
		"byteStride":32
	},
	{
		"buffer":7,
		"target":34963,
		"byteOffset":0,
		"byteLength":396
	},
	{
		"buffer":7,
		"target":34962,
		"byteOffset":396,
		"byteLength":6336,
		"byteStride":32
	},
	{
		"buffer":8,
		"target":34963,
		"byteOffset":0,
		"byteLength":72
	},
	{
		"buffer":8,
		"target":34962,
		"byteOffset":72,
		"byteLength":1152,
		"byteStride":32
	},
	{
		"buffer":9,
		"target":34963,
		"byteOffset":0,
		"byteLength":72
	},
	{
		"buffer":9,
		"target":34962,
		"byteOffset":72,
		"byteLength":1152,
		"byteStride":32
	},
	{
		"buffer":10,
		"target":34963,
		"byteOffset":0,
		"byteLength":744
	},
	{
		"buffer":10,
		"target":34962,
		"byteOffset":744,
		"byteLength":11904,
		"byteStride":32
	},
	{
		"buffer":11,
		"target":34963,
		"byteOffset":0,
		"byteLength":5904
	},
	{
		"buffer":11,
		"target":34962,
		"byteOffset":5904,
		"byteLength":94464,
		"byteStride":32
	},
	{
		"buffer":12,
		"target":34963,
		"byteOffset":0,
		"byteLength":72
	},
	{
		"buffer":12,
		"target":34962,
		"byteOffset":72,
		"byteLength":1152,
		"byteStride":32
	},
	{
		"buffer":13,
		"target":34963,
		"byteOffset":0,
		"byteLength":1728
	},
	{
		"buffer":13,
		"target":34962,
		"byteOffset":1728,
		"byteLength":27648,
		"byteStride":32
	},
	{
		"buffer":14,
		"target":34963,
		"byteOffset":0,
		"byteLength":11856
	},
	{
		"buffer":14,
		"target":34962,
		"byteOffset":11856,
		"byteLength":189696,
		"byteStride":32
	}],
	"buffers":[{
		"uri":"data:application/octet-stream;base64,",
		"byteLength":1224
	},
	{
		"uri":"data:application/octet-stream;base64,",
		"byteLength":34272
	},
	{
		"uri":"data:application/octet-stream;base64,",
		"byteLength":100368
	},
	{
		"uri":"data:application/octet-stream;base64,",
		"byteLength":100368
	},
	{
		"uri":"data:application/octet-stream;base64,",
		"byteLength":100368
	},
	{
		"uri":"data:application/octet-stream;base64,",
		"byteLength":6732
	},
	{
		"uri":"data:application/octet-stream;base64,",
		"byteLength":6732
	},
	{
		"uri":"data:application/octet-stream;base64,",
		"byteLength":6732
	},
	{
		"uri":"data:application/octet-stream;base64,",
		"byteLength":1224
	},
	{
		"uri":"data:application/octet-stream;base64,",
		"byteLength":1224
	},
	{
		"uri":"data:application/octet-stream;base64,",
		"byteLength":12648
	},
	{
		"uri":"data:application/octet-stream;base64,",
		"byteLength":100368
	},
	{
		"uri":"data:application/octet-stream;base64,",
		"byteLength":1224
	},
	{
		"uri":"data:application/octet-stream;base64,",
		"byteLength":29376
	},
	{
		"uri":"data:application/octet-stream;base64,",
		"byteLength":201552
	}],
	"materials":[{
		"pbrMetallicRoughness":{
			"baseColorFactor":[0.0,
			0.0,
			0.0,
			1.0],
			"metallicFactor":0.63,
			"roughnessFactor":0.32
		},
		"emissiveFactor":[0.0,
		0.0,
		0.0],
		"alphaMode":"OPAQUE",
		"doubleSided":false,
		"name":"Mat.1"
	},
	{
		"pbrMetallicRoughness":{
			"baseColorFactor":[0.9999999403953552,
			0.9999999403953552,
			0.9999999403953552,
			1.0],
			"metallicFactor":0.63,
			"roughnessFactor":0.32
		},
		"emissiveFactor":[0.0,
		0.0,
		0.0],
		"alphaMode":"OPAQUE",
		"doubleSided":false,
		"name":"Mat.1"
	}]
}