{
	"asset":{
		"version":"2.0",
		"generator":"Maxon Cinema 4D 2026.0.0 (#200000219)"
	},
	"scenes":[{
		"nodes":[0]
	}],
	"nodes":[{
		"name":"7spade",
		"children":[1,
		2,
		3,
		4,
		5,
		6,
		7,
		8,
		9]
	},
	{
		"name":"Cylinder.5",
		"mesh":0,
		"translation":[3.634446859359741,
		0.3554796874523163,
		-5.522754669189453],
		"rotation":[0.0,
		0.0,
		0.0,
		-1.0],
		"scale":[1.0,
		1.0,
		1.0]
	},
	{
		"name":"Cylinder.1",
		"mesh":1,
		"translation":[1.5667816400527955,
		0.3554796874523163,
		5.67503023147583],
		"rotation":[0.0,
		0.0,
		0.0,
		-1.0],
		"scale":[1.0,
		1.0,
		1.0]
	},
	{
		"name":"Cylinder",
		"mesh":2,
		"translation":[0.5653316378593445,
		0.3554796874523163,
		-5.407829761505127],
		"rotation":[0.0,
		0.0,
		0.0,
		-1.0],
		"scale":[1.0,
		1.0,
		1.0]
	},
	{
		"name":"Boolean",
		"mesh":3,
		"translation":[0.18598572909832,
		-1.4799010753631592,
		0.7495168447494507],
		"rotation":[0.0,
		0.0,
		0.0,
		-1.0],
		"scale":[1.0,
		1.0,
		1.0]
	},
	{
		"name":"Extrude.1",
		"translation":[-3.6155431270599367,
		0.16781611740589143,
		-3.712120771408081],
		"rotation":[0.0,
		0.0,
		0.0,
		-1.0],
		"scale":[1.0,
		1.0,
		1.0],
		"children":[10]
	},
	{
		"name":"Extrude",
		"translation":[0.18598572909832,
		-0.6546915173530579,
		0.7495168447494507],
		"rotation":[0.0,
		0.0,
		0.0,
		-1.0],
		"scale":[1.0,
		1.0,
		1.0],
		"children":[11,
		12,
		13]
	},
	{
		"name":"Cylinder.3",
		"mesh":4,
		"translation":[1.157732367515564,
		0.2731950283050537,
		-1.7280066013336182],
		"rotation":[0.0,
		0.0,
		0.0,
		-1.0],
		"scale":[1.0,
		1.0,
		1.0]
	},
	{
		"name":"Cylinder.2",
		"mesh":5,
		"translation":[-2.7566611766815187,
		0.3554796874523163,
		1.9009639024734498],
		"rotation":[0.0,
		0.0,
		0.0,
		-1.0],
		"scale":[1.0,
		1.0,
		1.0]
	},
	{
		"name":"Cube",
		"mesh":6,
		"translation":[0.18858516216278077,
		-0.002640840131789446,
		0.7293362021446228],
		"rotation":[0.0,
		0.0,
		0.0,
		-1.0],
		"scale":[1.0,
		1.0,
		1.0]
	},
	{
		"name":"Extrude.1",
		"mesh":7
	},
	{
		"name":"Extrude",
		"mesh":8
	},
	{
		"name":"Cylinder",
		"mesh":9,
		"translation":[-3.0782511234283449,
		1.0263501405715943,
		5.608639717102051],
		"rotation":[0.0,
		0.0,
		0.0,
		-1.0],
		"scale":[1.0,
		1.0,
		1.0]
	},
	{
		"name":"Cylinder.1",
		"mesh":10,
		"translation":[3.2610762119293215,
		1.0263501405715943,
		1.4001648426055909],
		"rotation":[0.0,
		0.0,
		0.0,
		-1.0],
		"scale":[1.0,
		1.0,
		1.0]
	}],
	"meshes":[{
		"name":"Cylinder.5",
		"primitives":[{
			"attributes":{
				"POSITION":1,
				"NORMAL":2,
				"TEXCOORD_0":3
			},
			"indices":0,
			"material":0
		}]
	},
	{
		"name":"Cylinder.1",
		"primitives":[{
			"attributes":{
				"POSITION":5,
				"NORMAL":6,
				"TEXCOORD_0":7
			},
			"indices":4,
			"material":0
		}]
	},
	{
		"name":"Cylinder",
		"primitives":[{
			"attributes":{
				"POSITION":9,
				"NORMAL":10,
				"TEXCOORD_0":11
			},
			"indices":8,
			"material":0
		}]
	},
	{
		"name":"Boolean",
		"primitives":[{
			"attributes":{
				"POSITION":13,
				"NORMAL":14,
				"TEXCOORD_0":15
			},
			"indices":12,
			"material":0
		}]
	},
	{
		"name":"Cylinder.3",
		"primitives":[{
			"attributes":{
				"POSITION":17,
				"NORMAL":18,
				"TEXCOORD_0":19
			},
			"indices":16,
			"material":0
		}]
	},
	{
		"name":"Cylinder.2",
		"primitives":[{
			"attributes":{
				"POSITION":21,
				"NORMAL":22,
				"TEXCOORD_0":23
			},
			"indices":20,
			"material":0
		}]
	},
	{
		"name":"Cube",
		"primitives":[{
			"attributes":{
				"POSITION":25,
				"NORMAL":26,
				"TEXCOORD_0":27
			},
			"indices":24,
			"material":1
		}]
	},
	{
		"name":"Extrude.1",
		"primitives":[{
			"attributes":{
				"POSITION":29,
				"NORMAL":30,
				"TEXCOORD_0":31
			},
			"indices":28,
			"material":0
		}]
	},
	{
		"name":"Extrude",
		"primitives":[{
			"attributes":{
				"POSITION":33,
				"NORMAL":34,
				"TEXCOORD_0":35
			},
			"indices":32,
			"material":0
		}]
	},
	{
		"name":"Cylinder",
		"primitives":[{
			"attributes":{
				"POSITION":37,
				"NORMAL":38,
				"TEXCOORD_0":39
			},
			"indices":36,
			"material":0
		}]
	},
	{
		"name":"Cylinder.1",
		"primitives":[{
			"attributes":{
				"POSITION":41,
				"NORMAL":42,
				"TEXCOORD_0":43
			},
			"indices":40,
			"material":0
		}]
	}],
	"accessors":[{
		"bufferView":0,
		"type":"SCALAR",
		"componentType":5123,
		"count":2952,
		"byteOffset":0,
		"min":[0],
		"max":[2951]
	},
	{
		"bufferView":1,
		"type":"VEC3",
		"componentType":5126,
		"count":2952,
		"byteOffset":0,
		"min":[-0.7000675797462463,
		-0.03505026921629906,
		-0.7016125321388245],
		"max":[0.7021277546882629,
		0.03505026921629906,
		0.7016125321388245]
	},
	{
		"bufferView":1,
		"type":"VEC3",
		"componentType":5126,
		"count":2952,
		"byteOffset":12,
		"min":[-0.9986987113952637,
		-1.0,
		-0.9999191164970398],
		"max":[1.0,
		1.0,
		0.9999191164970398]
	},
	{
		"bufferView":1,
		"type":"VEC2",
		"componentType":5126,
		"count":2952,
		"byteOffset":24,
		"min":[0.0,
		0.0],
		"max":[1.0,
		1.0]
	},
	{
		"bufferView":2,
		"type":"SCALAR",
		"componentType":5123,
		"count":2952,
		"byteOffset":0,
		"min":[0],
		"max":[2951]
	},
	{
		"bufferView":3,
		"type":"VEC3",
		"componentType":5126,
		"count":2952,
		"byteOffset":0,
		"min":[-1.7322595119476319,
		-0.04416338726878166,
		-1.7360823154449463],
		"max":[1.737357258796692,
		0.04416338726878166,
		1.7360823154449463]
	},
	{
		"bufferView":3,
		"type":"VEC3",
		"componentType":5126,
		"count":2952,
		"byteOffset":12,
		"min":[-0.9986987113952637,
		-1.0,
		-0.9999191164970398],
		"max":[1.0,
		1.0,
		0.9999191164970398]
	},
	{
		"bufferView":3,
		"type":"VEC2",
		"componentType":5126,
		"count":2952,
		"byteOffset":24,
		"min":[0.0,
		0.0],
		"max":[1.0,
		1.0]
	},
	{
		"bufferView":4,
		"type":"SCALAR",
		"componentType":5123,
		"count":2952,
		"byteOffset":0,
		"min":[0],
		"max":[2951]
	},
	{
		"bufferView":5,
		"type":"VEC3",
		"componentType":5126,
		"count":2952,
		"byteOffset":0,
		"min":[-1.374807596206665,
		-0.03505026921629906,
		-1.377841591835022],
		"max":[1.378853440284729,
		0.03505026921629906,
		1.377841591835022]
	},
	{
		"bufferView":5,
		"type":"VEC3",
		"componentType":5126,
		"count":2952,
		"byteOffset":12,
		"min":[-0.9986987113952637,
		-1.0,
		-0.9999191164970398],
		"max":[1.0,
		1.0,
		0.9999191164970398]
	},
	{
		"bufferView":5,
		"type":"VEC2",
		"componentType":5126,
		"count":2952,
		"byteOffset":24,
		"min":[0.0,
		0.0],
		"max":[1.0,
		1.0]
	},
	{
		"bufferView":6,
		"type":"SCALAR",
		"componentType":5123,
		"count":1008,
		"byteOffset":0,
		"min":[0],
		"max":[1007]
	},
	{
		"bufferView":7,
		"type":"VEC3",
		"componentType":5126,
		"count":1008,
		"byteOffset":0,
		"min":[-5.67979621887207,
		1.4474209547042847,
		-8.844843864440918],
		"max":[5.684994697570801,
		1.7829234600067139,
		8.804482460021973]
	},
	{
		"bufferView":7,
		"type":"VEC3",
		"componentType":5126,
		"count":1008,
		"byteOffset":12,
		"min":[-1.0,
		-1.0,
		-1.0],
		"max":[1.0,
		1.0,
		1.0]
	},
	{
		"bufferView":7,
		"type":"VEC2",
		"componentType":5126,
		"count":1008,
		"byteOffset":24,
		"min":[-0.0038793161511421205,
		0.0],
		"max":[1.0038795471191407,
		1.0]
	},
	{
		"bufferView":8,
		"type":"SCALAR",
		"componentType":5123,
		"count":2952,
		"byteOffset":0,
		"min":[0],
		"max":[2951]
	},
	{
		"bufferView":9,
		"type":"VEC3",
		"componentType":5126,
		"count":2952,
		"byteOffset":0,
		"min":[-2.0820932388305666,
		-0.03505026921629906,
		-2.0866880416870119],
		"max":[2.0882203578948976,
		0.03505026921629906,
		2.0866880416870119]
	},
	{
		"bufferView":9,
		"type":"VEC3",
		"componentType":5126,
		"count":2952,
		"byteOffset":12,
		"min":[-0.9986987113952637,
		-1.0,
		-0.9999191164970398],
		"max":[1.0,
		1.0,
		0.9999191164970398]
	},
	{
		"bufferView":9,
		"type":"VEC2",
		"componentType":5126,
		"count":2952,
		"byteOffset":24,
		"min":[0.0,
		0.0],
		"max":[1.0,
		1.0]
	},
	{
		"bufferView":10,
		"type":"SCALAR",
		"componentType":5123,
		"count":2952,
		"byteOffset":0,
		"min":[0],
		"max":[2951]
	},
	{
		"bufferView":11,
		"type":"VEC3",
		"componentType":5126,
		"count":2952,
		"byteOffset":0,
		"min":[-1.374807596206665,
		-0.03505026921629906,
		-1.377841591835022],
		"max":[1.378853440284729,
		0.03505026921629906,
		1.377841591835022]
	},
	{
		"bufferView":11,
		"type":"VEC3",
		"componentType":5126,
		"count":2952,
		"byteOffset":12,
		"min":[-0.9986987113952637,
		-1.0,
		-0.9999191164970398],
		"max":[1.0,
		1.0,
		0.9999191164970398]
	},
	{
		"bufferView":11,
		"type":"VEC2",
		"componentType":5126,
		"count":2952,
		"byteOffset":24,
		"min":[0.0,
		0.0],
		"max":[1.0,
		1.0]
	},
	{
		"bufferView":12,
		"type":"SCALAR",
		"componentType":5123,
		"count":372,
		"byteOffset":0,
		"min":[0],
		"max":[371]
	},
	{
		"bufferView":13,
		"type":"VEC3",
		"componentType":5126,
		"count":372,
		"byteOffset":0,
		"min":[-6.206188201904297,
		-0.18321429193019868,
		-9.309282302856446],
		"max":[6.206188201904297,
		0.18321429193019868,
		9.309282302856446]
	},
	{
		"bufferView":13,
		"type":"VEC3",
		"componentType":5126,
		"count":372,
		"byteOffset":12,
		"min":[-0.9990615248680115,
		-1.0,
		-0.9990615248680115],
		"max":[0.9990615248680115,
		1.0,
		0.9990615248680115]
	},
	{
		"bufferView":13,
		"type":"VEC2",
		"componentType":5126,
		"count":372,
		"byteOffset":24,
		"min":[-0.0038793161511421205,
		0.0],
		"max":[1.0038795471191407,
		1.0]
	},
	{
		"bufferView":14,
		"type":"SCALAR",
		"componentType":5123,
		"count":864,
		"byteOffset":0,
		"min":[0],
		"max":[863]
	},
	{
		"bufferView":15,
		"type":"VEC3",
		"componentType":5126,
		"count":864,
		"byteOffset":0,
		"min":[-0.9539029598236084,
		0.0,
		-1.153014898300171],
		"max":[0.9556898474693298,
		0.10000000149011612,
		0.813759446144104]
	},
	{
		"bufferView":15,
		"type":"VEC3",
		"componentType":5126,
		"count":864,
		"byteOffset":12,
		"min":[-0.9999997615814209,
		-1.0,
		-0.8115699291229248],
		"max":[0.9999997615814209,
		1.0,
		0.9999997615814209]
	},
	{
		"bufferView":15,
		"type":"VEC2",
		"componentType":5126,
		"count":864,
		"byteOffset":24,
		"min":[0.0,
		0.0],
		"max":[1.0,
		1.0]
	},
	{
		"bufferView":16,
		"type":"SCALAR",
		"componentType":5123,
		"count":216,
		"byteOffset":0,
		"min":[0],
		"max":[215]
	},
	{
		"bufferView":17,
		"type":"VEC3",
		"componentType":5126,
		"count":216,
		"byteOffset":0,
		"min":[-4.458261013031006,
		0.8116371035575867,
		-8.16236686706543],
		"max":[-3.112137794494629,
		0.9116371273994446,
		-6.063734531402588]
	},
	{
		"bufferView":17,
		"type":"VEC3",
		"componentType":5126,
		"count":216,
		"byteOffset":12,
		"min":[-1.0,
		-1.0,
		-0.999997615814209],
		"max":[1.0,
		1.0,
		1.0]
	},
	{
		"bufferView":17,
		"type":"VEC2",
		"componentType":5126,
		"count":216,
		"byteOffset":24,
		"min":[0.0,
		0.0],
		"max":[1.0,
		1.0]
	},
	{
		"bufferView":18,
		"type":"SCALAR",
		"componentType":5123,
		"count":198,
		"byteOffset":0,
		"min":[0],
		"max":[197]
	},
	{
		"bufferView":19,
		"type":"VEC3",
		"componentType":5126,
		"count":198,
		"byteOffset":0,
		"min":[-1.0625183582305909,
		-0.05000000074505806,
		-1.840335726737976],
		"max":[2.1250367164611818,
		0.05000000074505806,
		1.840335726737976]
	},
	{
		"bufferView":19,
		"type":"VEC3",
		"componentType":5126,
		"count":198,
		"byteOffset":12,
		"min":[-1.0,
		-1.0,
		-0.866019070148468],
		"max":[0.5000110268592835,
		1.0,
		0.866019070148468]
	},
	{
		"bufferView":19,
		"type":"VEC2",
		"componentType":5126,
		"count":198,
		"byteOffset":24,
		"min":[0.0,
		0.0],
		"max":[1.0,
		1.0]
	},
	{
		"bufferView":20,
		"type":"SCALAR",
		"componentType":5123,
		"count":198,
		"byteOffset":0,
		"min":[0],
		"max":[197]
	},
	{
		"bufferView":21,
		"type":"VEC3",
		"componentType":5126,
		"count":198,
		"byteOffset":0,
		"min":[-0.912470817565918,
		-0.04293906316161156,
		-1.5804458856582642],
		"max":[1.824941635131836,
		0.04293906316161156,
		1.5804458856582642]
	},
	{
		"bufferView":21,
		"type":"VEC3",
		"componentType":5126,
		"count":198,
		"byteOffset":12,
		"min":[-1.0,
		-1.0,
		-0.866019070148468],
		"max":[0.5000110268592835,
		1.0,
		0.866019070148468]
	},
	{
		"bufferView":21,
		"type":"VEC2",
		"componentType":5126,
		"count":198,
		"byteOffset":24,
		"min":[0.0,
		0.0],
		"max":[1.0,
		1.0]
	}],
	"bufferViews":[{
		"buffer":0,
		"target":34963,
		"byteOffset":0,
		"byteLength":5904
	},
	{
		"buffer":0,
		"target":34962,
		"byteOffset":5904,
		"byteLength":94464,
		"byteStride":32
	},
	{
		"buffer":1,
		"target":34963,
		"byteOffset":0,
		"byteLength":5904
	},
	{
		"buffer":1,
		"target":34962,
		"byteOffset":5904,
		"byteLength":94464,
		"byteStride":32
	},
	{
		"buffer":2,
		"target":34963,
		"byteOffset":0,
		"byteLength":5904
	},
	{
		"buffer":2,
		"target":34962,
		"byteOffset":5904,
		"byteLength":94464,
		"byteStride":32
	},
	{
		"buffer":3,
		"target":34963,
		"byteOffset":0,
		"byteLength":2016
	},
	{
		"buffer":3,
		"target":34962,
		"byteOffset":2016,
		"byteLength":32256,
		"byteStride":32
	},
	{
		"buffer":4,
		"target":34963,
		"byteOffset":0,
		"byteLength":5904
	},
	{
		"buffer":4,
		"target":34962,
		"byteOffset":5904,
		"byteLength":94464,
		"byteStride":32
	},
	{
		"buffer":5,
		"target":34963,
		"byteOffset":0,
		"byteLength":5904
	},
	{
		"buffer":5,
		"target":34962,
		"byteOffset":5904,
		"byteLength":94464,
		"byteStride":32
	},
	{
		"buffer":6,
		"target":34963,
		"byteOffset":0,
		"byteLength":744
	},
	{
		"buffer":6,
		"target":34962,
		"byteOffset":744,
		"byteLength":11904,
		"byteStride":32
	},
	{
		"buffer":7,
		"target":34963,
		"byteOffset":0,
		"byteLength":1728
	},
	{
		"buffer":7,
		"target":34962,
		"byteOffset":1728,
		"byteLength":27648,
		"byteStride":32
	},
	{
		"buffer":8,
		"target":34963,
		"byteOffset":0,
		"byteLength":432
	},
	{
		"buffer":8,
		"target":34962,
		"byteOffset":432,
		"byteLength":6912,
		"byteStride":32
	},
	{
		"buffer":9,
		"target":34963,
		"byteOffset":0,
		"byteLength":396
	},
	{
		"buffer":9,
		"target":34962,
		"byteOffset":396,
		"byteLength":6336,
		"byteStride":32
	},
	{
		"buffer":10,
		"target":34963,
		"byteOffset":0,
		"byteLength":396
	},
	{
		"buffer":10,
		"target":34962,
		"byteOffset":396,
		"byteLength":6336,
		"byteStride":32
	}],
	"buffers":[{
		"uri":"data:application/octet-stream;base64,",
		"byteLength":100368
	},
	{
		"uri":"data:application/octet-stream;base64,",
		"byteLength":100368
	},
	{
		"uri":"data:application/octet-stream;base64,",
		"byteLength":100368
	},
	{
		"uri":"data:application/octet-stream;base64,",
		"byteLength":34272
	},
	{
		"uri":"data:application/octet-stream;base64,",
		"byteLength":100368
	},
	{
		"uri":"data:application/octet-stream;base64,",
		"byteLength":100368
	},
	{
		"uri":"data:application/octet-stream;base64,",
		"byteLength":12648
	},
	{
		"uri":"data:application/octet-stream;base64,",
		"byteLength":29376
	},
	{
		"uri":"data:application/octet-stream;base64,",
		"byteLength":7344
	},
	{
		"uri":"data:application/octet-stream;base64,",
		"byteLength":6732
	},
	{
		"uri":"data:application/octet-stream;base64,",
		"byteLength":6732
	}],
	"materials":[{
		"pbrMetallicRoughness":{
			"baseColorFactor":[0.0,
			0.0,
			0.0,
			1.0],
			"metallicFactor":0.63,
			"roughnessFactor":0.32
		},
		"emissiveFactor":[0.0,
		0.0,
		0.0],
		"alphaMode":"OPAQUE",
		"doubleSided":false,
		"name":"Mat.1"
	},
	{
		"pbrMetallicRoughness":{
			"baseColorFactor":[0.9999999403953552,
			0.9999999403953552,
			0.9999999403953552,
			1.0],
			"metallicFactor":0.63,
			"roughnessFactor":0.32
		},
		"emissiveFactor":[0.0,
		0.0,
		0.0],
		"alphaMode":"OPAQUE",
		"doubleSided":false,
		"name":"Mat.1"
	}]
}