{
	"asset":{
		"version":"2.0",
		"generator":"Maxon Cinema 4D 2026.0.0 (#200000219)"
	},
	"scenes":[{
		"nodes":[0]
	}],
	"nodes":[{
		"name":"4spade",
		"children":[1,
		2,
		3,
		4,
		5,
		6,
		7,
		8]
	},
	{
		"name":"Tube",
		"mesh":0,
		"translation":[-1.5643302202224732,
		0.3988848030567169,
		3.911520004272461],
		"rotation":[0.0,
		0.0,
		0.0,
		-1.0],
		"scale":[1.0,
		1.0,
		1.0]
	},
	{
		"name":"Cylinder",
		"mesh":1,
		"translation":[2.1143131256103517,
		0.3716586232185364,
		3.91457200050354],
		"rotation":[0.0,
		0.0,
		0.0,
		-1.0],
		"scale":[1.0,
		1.0,
		1.0]
	},
	{
		"name":"Tube",
		"mesh":2,
		"translation":[2.1143124103546144,
		0.3988848030567169,
		0.06517051160335541],
		"rotation":[0.0,
		-1.0,
		0.0,
		-0.00016269509796984494],
		"scale":[1.0,
		1.0,
		1.0]
	},
	{
		"name":"Cylinder",
		"mesh":3,
		"translation":[-1.5643296241760255,
		0.3716586232185364,
		0.06092141941189766],
		"rotation":[0.0,
		-1.0,
		0.0,
		-0.00016269509796984494],
		"scale":[1.0,
		1.0,
		1.0]
	},
	{
		"name":"Extrude.1",
		"translation":[-3.6155431270599367,
		0.16781611740589143,
		-3.712120771408081],
		"rotation":[0.0,
		0.0,
		0.0,
		-1.0],
		"scale":[1.0,
		1.0,
		1.0],
		"children":[9]
	},
	{
		"name":"Extrude",
		"translation":[0.18598572909832,
		-0.6546915173530579,
		0.7495168447494507],
		"rotation":[0.0,
		0.0,
		0.0,
		-1.0],
		"scale":[1.0,
		1.0,
		1.0],
		"children":[10]
	},
	{
		"name":"Boolean",
		"mesh":4,
		"translation":[0.18598572909832,
		-1.4799010753631592,
		0.7495168447494507],
		"rotation":[0.0,
		0.0,
		0.0,
		-1.0],
		"scale":[1.0,
		1.0,
		1.0]
	},
	{
		"name":"Cube",
		"mesh":5,
		"translation":[0.18858516216278077,
		-0.002640840131789446,
		0.7293362021446228],
		"rotation":[0.0,
		0.0,
		0.0,
		-1.0],
		"scale":[1.0,
		1.0,
		1.0]
	},
	{
		"name":"Extrude.1",
		"mesh":6
	},
	{
		"name":"Extrude",
		"mesh":7
	}],
	"meshes":[{
		"name":"Tube",
		"primitives":[{
			"attributes":{
				"POSITION":1,
				"NORMAL":2,
				"TEXCOORD_0":3
			},
			"indices":0,
			"material":0
		}]
	},
	{
		"name":"Cylinder",
		"primitives":[{
			"attributes":{
				"POSITION":5,
				"NORMAL":6,
				"TEXCOORD_0":7
			},
			"indices":4,
			"material":0
		}]
	},
	{
		"name":"Tube",
		"primitives":[{
			"attributes":{
				"POSITION":9,
				"NORMAL":10,
				"TEXCOORD_0":11
			},
			"indices":8,
			"material":0
		}]
	},
	{
		"name":"Cylinder",
		"primitives":[{
			"attributes":{
				"POSITION":13,
				"NORMAL":14,
				"TEXCOORD_0":15
			},
			"indices":12,
			"material":0
		}]
	},
	{
		"name":"Boolean",
		"primitives":[{
			"attributes":{
				"POSITION":17,
				"NORMAL":18,
				"TEXCOORD_0":19
			},
			"indices":16,
			"material":0
		}]
	},
	{
		"name":"Cube",
		"primitives":[{
			"attributes":{
				"POSITION":21,
				"NORMAL":22,
				"TEXCOORD_0":23
			},
			"indices":20,
			"material":1
		}]
	},
	{
		"name":"Extrude.1",
		"primitives":[{
			"attributes":{
				"POSITION":25,
				"NORMAL":26,
				"TEXCOORD_0":27
			},
			"indices":24,
			"material":0
		}]
	},
	{
		"name":"Extrude",
		"primitives":[{
			"attributes":{
				"POSITION":29,
				"NORMAL":30,
				"TEXCOORD_0":31
			},
			"indices":28,
			"material":0
		}]
	}],
	"accessors":[{
		"bufferView":0,
		"type":"SCALAR",
		"componentType":5123,
		"count":69,
		"byteOffset":0,
		"min":[0],
		"max":[68]
	},
	{
		"bufferView":1,
		"type":"VEC3",
		"componentType":5126,
		"count":69,
		"byteOffset":0,
		"min":[-1.8315143585205079,
		0.0,
		-1.8444236516952515],
		"max":[1.8487335443496705,
		0.0,
		1.8444236516952515]
	},
	{
		"bufferView":1,
		"type":"VEC3",
		"componentType":5126,
		"count":69,
		"byteOffset":12,
		"min":[0.0,
		-1.0,
		0.0],
		"max":[0.0,
		1.0,
		0.0]
	},
	{
		"bufferView":1,
		"type":"VEC2",
		"componentType":5126,
		"count":69,
		"byteOffset":24,
		"min":[0.004657026845961809,
		0.0011656153947114945],
		"max":[1.0,
		0.9988343715667725]
	},
	{
		"bufferView":2,
		"type":"SCALAR",
		"componentType":5123,
		"count":264,
		"byteOffset":0,
		"min":[0],
		"max":[263]
	},
	{
		"bufferView":3,
		"type":"VEC3",
		"componentType":5126,
		"count":264,
		"byteOffset":0,
		"min":[-1.3899999856948853,
		-0.05000000074505806,
		-1.3899999856948853],
		"max":[1.3899999856948853,
		0.05000000074505806,
		1.3899999856948853]
	},
	{
		"bufferView":3,
		"type":"VEC3",
		"componentType":5126,
		"count":264,
		"byteOffset":12,
		"min":[-0.7071068286895752,
		-1.0,
		-0.7071068286895752],
		"max":[0.7071068286895752,
		1.0,
		0.7071068286895752]
	},
	{
		"bufferView":3,
		"type":"VEC2",
		"componentType":5126,
		"count":264,
		"byteOffset":24,
		"min":[0.0,
		0.0],
		"max":[1.0,
		1.0]
	},
	{
		"bufferView":4,
		"type":"SCALAR",
		"componentType":5123,
		"count":69,
		"byteOffset":0,
		"min":[0],
		"max":[68]
	},
	{
		"bufferView":5,
		"type":"VEC3",
		"componentType":5126,
		"count":69,
		"byteOffset":0,
		"min":[-1.8315143585205079,
		0.0,
		-1.8444236516952515],
		"max":[1.8487335443496705,
		0.0,
		1.8444236516952515]
	},
	{
		"bufferView":5,
		"type":"VEC3",
		"componentType":5126,
		"count":69,
		"byteOffset":12,
		"min":[0.0,
		-1.0,
		0.0],
		"max":[0.0,
		1.0,
		0.0]
	},
	{
		"bufferView":5,
		"type":"VEC2",
		"componentType":5126,
		"count":69,
		"byteOffset":24,
		"min":[0.004657026845961809,
		0.0011656153947114945],
		"max":[1.0,
		0.9988343715667725]
	},
	{
		"bufferView":6,
		"type":"SCALAR",
		"componentType":5123,
		"count":264,
		"byteOffset":0,
		"min":[0],
		"max":[263]
	},
	{
		"bufferView":7,
		"type":"VEC3",
		"componentType":5126,
		"count":264,
		"byteOffset":0,
		"min":[-1.3899999856948853,
		-0.05000000074505806,
		-1.3899999856948853],
		"max":[1.3899999856948853,
		0.05000000074505806,
		1.3899999856948853]
	},
	{
		"bufferView":7,
		"type":"VEC3",
		"componentType":5126,
		"count":264,
		"byteOffset":12,
		"min":[-0.7071068286895752,
		-1.0,
		-0.7071068286895752],
		"max":[0.7071068286895752,
		1.0,
		0.7071068286895752]
	},
	{
		"bufferView":7,
		"type":"VEC2",
		"componentType":5126,
		"count":264,
		"byteOffset":24,
		"min":[0.0,
		0.0],
		"max":[1.0,
		1.0]
	},
	{
		"bufferView":8,
		"type":"SCALAR",
		"componentType":5123,
		"count":1008,
		"byteOffset":0,
		"min":[0],
		"max":[1007]
	},
	{
		"bufferView":9,
		"type":"VEC3",
		"componentType":5126,
		"count":1008,
		"byteOffset":0,
		"min":[-5.67979621887207,
		1.4474209547042847,
		-8.844843864440918],
		"max":[5.684994697570801,
		1.7829234600067139,
		8.804482460021973]
	},
	{
		"bufferView":9,
		"type":"VEC3",
		"componentType":5126,
		"count":1008,
		"byteOffset":12,
		"min":[-1.0,
		-1.0,
		-1.0],
		"max":[1.0,
		1.0,
		1.0]
	},
	{
		"bufferView":9,
		"type":"VEC2",
		"componentType":5126,
		"count":1008,
		"byteOffset":24,
		"min":[-0.0038793161511421205,
		0.0],
		"max":[1.0038795471191407,
		1.0]
	},
	{
		"bufferView":10,
		"type":"SCALAR",
		"componentType":5123,
		"count":372,
		"byteOffset":0,
		"min":[0],
		"max":[371]
	},
	{
		"bufferView":11,
		"type":"VEC3",
		"componentType":5126,
		"count":372,
		"byteOffset":0,
		"min":[-6.206188201904297,
		-0.18321429193019868,
		-9.309282302856446],
		"max":[6.206188201904297,
		0.18321429193019868,
		9.309282302856446]
	},
	{
		"bufferView":11,
		"type":"VEC3",
		"componentType":5126,
		"count":372,
		"byteOffset":12,
		"min":[-0.9990615248680115,
		-1.0,
		-0.9990615248680115],
		"max":[0.9990615248680115,
		1.0,
		0.9990615248680115]
	},
	{
		"bufferView":11,
		"type":"VEC2",
		"componentType":5126,
		"count":372,
		"byteOffset":24,
		"min":[-0.0038793161511421205,
		0.0],
		"max":[1.0038795471191407,
		1.0]
	},
	{
		"bufferView":12,
		"type":"SCALAR",
		"componentType":5123,
		"count":864,
		"byteOffset":0,
		"min":[0],
		"max":[863]
	},
	{
		"bufferView":13,
		"type":"VEC3",
		"componentType":5126,
		"count":864,
		"byteOffset":0,
		"min":[-0.9539029598236084,
		0.0,
		-1.153014898300171],
		"max":[0.9556898474693298,
		0.10000000149011612,
		0.813759446144104]
	},
	{
		"bufferView":13,
		"type":"VEC3",
		"componentType":5126,
		"count":864,
		"byteOffset":12,
		"min":[-0.9999997615814209,
		-1.0,
		-0.8115699291229248],
		"max":[0.9999997615814209,
		1.0,
		0.9999997615814209]
	},
	{
		"bufferView":13,
		"type":"VEC2",
		"componentType":5126,
		"count":864,
		"byteOffset":24,
		"min":[0.0,
		0.0],
		"max":[1.0,
		1.0]
	},
	{
		"bufferView":14,
		"type":"SCALAR",
		"componentType":5123,
		"count":168,
		"byteOffset":0,
		"min":[0],
		"max":[167]
	},
	{
		"bufferView":15,
		"type":"VEC3",
		"componentType":5126,
		"count":168,
		"byteOffset":0,
		"min":[-4.468754291534424,
		0.8116371035575867,
		-8.157870292663575],
		"max":[-3.1211321353912355,
		0.9116371273994446,
		-6.062235355377197]
	},
	{
		"bufferView":15,
		"type":"VEC3",
		"componentType":5126,
		"count":168,
		"byteOffset":12,
		"min":[-1.0,
		-1.0,
		-1.0],
		"max":[1.0,
		1.0,
		1.0]
	},
	{
		"bufferView":15,
		"type":"VEC2",
		"componentType":5126,
		"count":168,
		"byteOffset":24,
		"min":[0.0,
		0.0],
		"max":[1.0,
		1.0]
	}],
	"bufferViews":[{
		"buffer":0,
		"target":34963,
		"byteOffset":0,
		"byteLength":138
	},
	{
		"buffer":0,
		"target":34962,
		"byteOffset":140,
		"byteLength":2208,
		"byteStride":32
	},
	{
		"buffer":1,
		"target":34963,
		"byteOffset":0,
		"byteLength":528
	},
	{
		"buffer":1,
		"target":34962,
		"byteOffset":528,
		"byteLength":8448,
		"byteStride":32
	},
	{
		"buffer":2,
		"target":34963,
		"byteOffset":0,
		"byteLength":138
	},
	{
		"buffer":2,
		"target":34962,
		"byteOffset":140,
		"byteLength":2208,
		"byteStride":32
	},
	{
		"buffer":3,
		"target":34963,
		"byteOffset":0,
		"byteLength":528
	},
	{
		"buffer":3,
		"target":34962,
		"byteOffset":528,
		"byteLength":8448,
		"byteStride":32
	},
	{
		"buffer":4,
		"target":34963,
		"byteOffset":0,
		"byteLength":2016
	},
	{
		"buffer":4,
		"target":34962,
		"byteOffset":2016,
		"byteLength":32256,
		"byteStride":32
	},
	{
		"buffer":5,
		"target":34963,
		"byteOffset":0,
		"byteLength":744
	},
	{
		"buffer":5,
		"target":34962,
		"byteOffset":744,
		"byteLength":11904,
		"byteStride":32
	},
	{
		"buffer":6,
		"target":34963,
		"byteOffset":0,
		"byteLength":1728
	},
	{
		"buffer":6,
		"target":34962,
		"byteOffset":1728,
		"byteLength":27648,
		"byteStride":32
	},
	{
		"buffer":7,
		"target":34963,
		"byteOffset":0,
		"byteLength":336
	},
	{
		"buffer":7,
		"target":34962,
		"byteOffset":336,
		"byteLength":5376,
		"byteStride":32
	}],
	"buffers":[{
		"uri":"data:application/octet-stream;base64,",
		"byteLength":2348
	},
	{
		"uri":"data:application/octet-stream;base64,",
		"byteLength":8976
	},
	{
		"uri":"data:application/octet-stream;base64,",
		"byteLength":2348
	},
	{
		"uri":"data:application/octet-stream;base64,",
		"byteLength":8976
	},
	{
		"uri":"data:application/octet-stream;base64,",
		"byteLength":34272
	},
	{
		"uri":"data:application/octet-stream;base64,",
		"byteLength":12648
	},
	{
		"uri":"data:application/octet-stream;base64,",
		"byteLength":29376
	},
	{
		"uri":"data:application/octet-stream;base64,",
		"byteLength":5712
	}],
	"materials":[{
		"pbrMetallicRoughness":{
			"baseColorFactor":[0.0,
			0.0,
			0.0,
			1.0],
			"metallicFactor":0.63,
			"roughnessFactor":0.32
		},
		"emissiveFactor":[0.0,
		0.0,
		0.0],
		"alphaMode":"OPAQUE",
		"doubleSided":false,
		"name":"Mat.1"
	},
	{
		"pbrMetallicRoughness":{
			"baseColorFactor":[0.9999999403953552,
			0.9999999403953552,
			0.9999999403953552,
			1.0],
			"metallicFactor":0.63,
			"roughnessFactor":0.32
		},
		"emissiveFactor":[0.0,
		0.0,
		0.0],
		"alphaMode":"OPAQUE",
		"doubleSided":false,
		"name":"Mat.1"
	}]
}