{
	"asset":{
		"version":"2.0",
		"generator":"Maxon Cinema 4D 2024.4.0 (#200000219)"
	},
	"scenes":[{
		"nodes":[0,
		1]
	}],
	"nodes":[{
		"name":"Cube.14",
		"mesh":0,
		"translation":[14.355749130249024,
		7.896548271179199,
		3.0111050605773927],
		"rotation":[0.0,
		-1.0,
		0.0,
		-6.123234262925839e-17],
		"scale":[1.0,
		1.0,
		1.0]
	},
	{
		"name":"Cube.10",
		"translation":[14.010271072387696,
		7.578222751617432,
		0.1113906130194664],
		"rotation":[0.0,
		0.0,
		0.0,
		-1.0],
		"scale":[1.0,
		1.0,
		1.0],
		"children":[2,
		3,
		4,
		5,
		6]
	},
	{
		"name":"Cube.10-Mat.1",
		"mesh":1
	},
	{
		"name":"Cube.10-Mat.1",
		"mesh":2
	},
	{
		"name":"Cube.10-Mat.1",
		"mesh":3
	},
	{
		"name":"Cube.10-Mat.1",
		"mesh":4
	},
	{
		"name":"Cube.10-Mat.1",
		"mesh":5
	}],
	"meshes":[{
		"name":"Cube.14",
		"primitives":[{
			"attributes":{
				"POSITION":1,
				"NORMAL":2,
				"TEXCOORD_0":3
			},
			"indices":0,
			"material":0
		}]
	},
	{
		"name":"Cube.10-Mat.1",
		"primitives":[{
			"attributes":{
				"POSITION":5,
				"NORMAL":6,
				"TEXCOORD_0":7
			},
			"indices":4,
			"material":1
		}]
	},
	{
		"name":"Cube.10-Mat.1",
		"primitives":[{
			"attributes":{
				"POSITION":9,
				"NORMAL":10,
				"TEXCOORD_0":11
			},
			"indices":8,
			"material":2
		}]
	},
	{
		"name":"Cube.10-Mat.1",
		"primitives":[{
			"attributes":{
				"POSITION":13,
				"NORMAL":14,
				"TEXCOORD_0":15
			},
			"indices":12,
			"material":2
		}]
	},
	{
		"name":"Cube.10-Mat.1",
		"primitives":[{
			"attributes":{
				"POSITION":17,
				"NORMAL":18,
				"TEXCOORD_0":19
			},
			"indices":16,
			"material":2
		}]
	},
	{
		"name":"Cube.10-Mat.1",
		"primitives":[{
			"attributes":{
				"POSITION":21,
				"NORMAL":22,
				"TEXCOORD_0":23
			},
			"indices":20,
			"material":1
		}]
	}],
	"accessors":[{
		"max":[89],
		"bufferView":0,
		"type":"SCALAR",
		"componentType":5123,
		"count":90,
		"byteOffset":0,
		"min":[0]
	},
	{
		"max":[48.357093811035159,
		13.33154296875,
		20.009714126586915],
		"bufferView":1,
		"type":"VEC3",
		"componentType":5126,
		"count":90,
		"byteOffset":0,
		"min":[-48.357093811035159,
		-11.726910591125489,
		-21.13148307800293]
	},
	{
		"max":[1.0,
		0.9996312260627747,
		1.0],
		"bufferView":1,
		"type":"VEC3",
		"componentType":5126,
		"count":90,
		"byteOffset":12,
		"min":[-1.0,
		-1.0,
		-0.8311887383460999]
	},
	{
		"max":[1.0,
		1.0],
		"bufferView":1,
		"type":"VEC2",
		"componentType":5126,
		"count":90,
		"byteOffset":24,
		"min":[0.0,
		0.0]
	},
	{
		"max":[11],
		"bufferView":2,
		"type":"SCALAR",
		"componentType":5123,
		"count":12,
		"byteOffset":0,
		"min":[0]
	},
	{
		"max":[46.52702331542969,
		0.377610981464386,
		15.862651824951172],
		"bufferView":3,
		"type":"VEC3",
		"componentType":5126,
		"count":12,
		"byteOffset":0,
		"min":[-46.52702331542969,
		-0.377610981464386,
		-15.862651824951172]
	},
	{
		"max":[0.0,
		1.0,
		0.0],
		"bufferView":3,
		"type":"VEC3",
		"componentType":5126,
		"count":12,
		"byteOffset":12,
		"min":[0.0,
		-1.0,
		0.0]
	},
	{
		"max":[1.0,
		1.0],
		"bufferView":3,
		"type":"VEC2",
		"componentType":5126,
		"count":12,
		"byteOffset":24,
		"min":[0.0,
		0.0]
	},
	{
		"max":[5],
		"bufferView":4,
		"type":"SCALAR",
		"componentType":5123,
		"count":6,
		"byteOffset":0,
		"min":[0]
	},
	{
		"max":[46.52702331542969,
		0.377610981464386,
		-15.862651824951172],
		"bufferView":5,
		"type":"VEC3",
		"componentType":5126,
		"count":6,
		"byteOffset":0,
		"min":[-46.52702331542969,
		-0.377610981464386,
		-15.862651824951172]
	},
	{
		"max":[0.0,
		0.0,
		-1.0],
		"bufferView":5,
		"type":"VEC3",
		"componentType":5126,
		"count":6,
		"byteOffset":12,
		"min":[0.0,
		0.0,
		-1.0]
	},
	{
		"max":[1.0,
		1.0],
		"bufferView":5,
		"type":"VEC2",
		"componentType":5126,
		"count":6,
		"byteOffset":24,
		"min":[0.0,
		0.0]
	},
	{
		"max":[5],
		"bufferView":6,
		"type":"SCALAR",
		"componentType":5123,
		"count":6,
		"byteOffset":0,
		"min":[0]
	},
	{
		"max":[46.52702331542969,
		0.377610981464386,
		15.862651824951172],
		"bufferView":7,
		"type":"VEC3",
		"componentType":5126,
		"count":6,
		"byteOffset":0,
		"min":[-46.52702331542969,
		-0.377610981464386,
		15.862651824951172]
	},
	{
		"max":[0.0,
		0.0,
		1.0],
		"bufferView":7,
		"type":"VEC3",
		"componentType":5126,
		"count":6,
		"byteOffset":12,
		"min":[0.0,
		0.0,
		1.0]
	},
	{
		"max":[1.0,
		1.0],
		"bufferView":7,
		"type":"VEC2",
		"componentType":5126,
		"count":6,
		"byteOffset":24,
		"min":[0.0,
		0.0]
	},
	{
		"max":[5],
		"bufferView":8,
		"type":"SCALAR",
		"componentType":5123,
		"count":6,
		"byteOffset":0,
		"min":[0]
	},
	{
		"max":[-46.52702331542969,
		0.377610981464386,
		15.862651824951172],
		"bufferView":9,
		"type":"VEC3",
		"componentType":5126,
		"count":6,
		"byteOffset":0,
		"min":[-46.52702331542969,
		-0.377610981464386,
		-15.862651824951172]
	},
	{
		"max":[-1.0,
		0.0,
		0.0],
		"bufferView":9,
		"type":"VEC3",
		"componentType":5126,
		"count":6,
		"byteOffset":12,
		"min":[-1.0,
		0.0,
		0.0]
	},
	{
		"max":[1.0,
		1.0],
		"bufferView":9,
		"type":"VEC2",
		"componentType":5126,
		"count":6,
		"byteOffset":24,
		"min":[0.0,
		0.0]
	},
	{
		"max":[5],
		"bufferView":10,
		"type":"SCALAR",
		"componentType":5123,
		"count":6,
		"byteOffset":0,
		"min":[0]
	},
	{
		"max":[46.52702331542969,
		0.377610981464386,
		15.862651824951172],
		"bufferView":11,
		"type":"VEC3",
		"componentType":5126,
		"count":6,
		"byteOffset":0,
		"min":[46.52702331542969,
		-0.377610981464386,
		-15.862651824951172]
	},
	{
		"max":[1.0,
		0.0,
		0.0],
		"bufferView":11,
		"type":"VEC3",
		"componentType":5126,
		"count":6,
		"byteOffset":12,
		"min":[1.0,
		0.0,
		0.0]
	},
	{
		"max":[1.0,
		1.0],
		"bufferView":11,
		"type":"VEC2",
		"componentType":5126,
		"count":6,
		"byteOffset":24,
		"min":[0.0,
		0.0]
	}],
	"bufferViews":[{
		"buffer":0,
		"byteOffset":0,
		"byteLength":180,
		"target":34963
	},
	{
		"buffer":0,
		"byteOffset":180,
		"byteLength":2880,
		"target":34962,
		"byteStride":32
	},
	{
		"buffer":1,
		"byteOffset":0,
		"byteLength":24,
		"target":34963
	},
	{
		"buffer":1,
		"byteOffset":24,
		"byteLength":384,
		"target":34962,
		"byteStride":32
	},
	{
		"buffer":2,
		"byteOffset":0,
		"byteLength":12,
		"target":34963
	},
	{
		"buffer":2,
		"byteOffset":12,
		"byteLength":192,
		"target":34962,
		"byteStride":32
	},
	{
		"buffer":3,
		"byteOffset":0,
		"byteLength":12,
		"target":34963
	},
	{
		"buffer":3,
		"byteOffset":12,
		"byteLength":192,
		"target":34962,
		"byteStride":32
	},
	{
		"buffer":4,
		"byteOffset":0,
		"byteLength":12,
		"target":34963
	},
	{
		"buffer":4,
		"byteOffset":12,
		"byteLength":192,
		"target":34962,
		"byteStride":32
	},
	{
		"buffer":5,
		"byteOffset":0,
		"byteLength":12,
		"target":34963
	},
	{
		"buffer":5,
		"byteOffset":12,
		"byteLength":192,
		"target":34962,
		"byteStride":32
	}],
	"buffers":[{
		"uri":"data:application/octet-stream;base64,",
		"byteLength":3060
	},
	{
		"uri":"data:application/octet-stream;base64,",
		"byteLength":408
	},
	{
		"uri":"data:application/octet-stream;base64,",
		"byteLength":204
	},
	{
		"uri":"data:application/octet-stream;base64,",
		"byteLength":204
	},
	{
		"uri":"data:application/octet-stream;base64,",
		"byteLength":204
	},
	{
		"uri":"data:application/octet-stream;base64,",
		"byteLength":204
	}],
	"materials":[{
		"pbrMetallicRoughness":{
			"baseColorFactor":[1.0,
			1.0,
			1.0,
			1.0],
			"metallicFactor":0.0,
			"roughnessFactor":0.5
		},
		"emissiveFactor":[0.0,
		0.0,
		0.0],
		"alphaMode":"OPAQUE",
		"doubleSided":false,
		"name":"Mat.1"
	},
	{
		"pbrMetallicRoughness":{
			"baseColorFactor":[0.05279999999999999,
			0.05688000000000001,
			0.08,
			1.0],
			"metallicFactor":0.0,
			"roughnessFactor":0.06
		},
		"emissiveFactor":[0.0,
		0.0,
		0.0],
		"alphaMode":"OPAQUE",
		"doubleSided":false,
		"name":"Mat.1"
	},
	{
		"pbrMetallicRoughness":{
			"baseColorFactor":[0.05279999999999999,
			0.05688000000000001,
			0.08,
			0.56],
			"metallicFactor":0.0,
			"roughnessFactor":0.06
		},
		"emissiveFactor":[0.0,
		0.0,
		0.0],
		"alphaMode":"BLEND",
		"doubleSided":false,
		"name":"Mat.1"
	}]
}