{
	"meshes":[{
		"name":"Cone",
		"primitives":[{
			"attributes":{
				"POSITION":1,
				"NORMAL":2,
				"TEXCOORD_0":3
			},
			"indices":0
		}]
	},
	{
		"name":"tmpyz756d8h.ply",
		"primitives":[{
			"attributes":{
				"POSITION":5,
				"NORMAL":6
			},
			"indices":4,
			"material":0
		}]
	},
	{
		"name":"Tube.3",
		"primitives":[{
			"attributes":{
				"POSITION":8,
				"NORMAL":9,
				"TEXCOORD_0":10
			},
			"indices":7
		}]
	},
	{
		"name":"Tube",
		"primitives":[{
			"attributes":{
				"POSITION":12,
				"NORMAL":13,
				"TEXCOORD_0":14
			},
			"indices":11
		}]
	},
	{
		"name":"Tube.2",
		"primitives":[{
			"attributes":{
				"POSITION":16,
				"NORMAL":17,
				"TEXCOORD_0":18
			},
			"indices":15
		}]
	},
	{
		"name":"Tube.4",
		"primitives":[{
			"attributes":{
				"POSITION":20,
				"NORMAL":21,
				"TEXCOORD_0":22
			},
			"indices":19
		}]
	},
	{
		"name":"튜브.3",
		"primitives":[{
			"attributes":{
				"POSITION":24,
				"NORMAL":25,
				"TEXCOORD_0":26
			},
			"indices":23
		}]
	},
	{
		"name":"Lathe.3",
		"primitives":[{
			"attributes":{
				"POSITION":28,
				"NORMAL":29,
				"TEXCOORD_0":30
			},
			"indices":27
		}]
	},
	{
		"name":"Lathe",
		"primitives":[{
			"attributes":{
				"POSITION":32,
				"NORMAL":33,
				"TEXCOORD_0":34
			},
			"indices":31
		}]
	}],
	"asset":{
		"version":"2.0",
		"generator":"Maxon Cinema 4D 2025.1.2 (#200000219)"
	},
	"scenes":[{
		"nodes":[0]
	}],
	"nodes":[{
		"name":"big roulette",
		"children":[1,
		2,
		3,
		4,
		5,
		6,
		7,
		8,
		9]
	},
	{
		"name":"Cone",
		"translation":[-3.23179292678833,
		-3882.86474609375,
		-0.004299799911677837],
		"mesh":0,
		"rotation":[0.0,
		0.0,
		1.0,
		-6.123234262925839e-17],
		"scale":[1.0,
		1.0,
		1.0]
	},
	{
		"name":"tmpyz756d8h.ply",
		"translation":[1.330590748693794e-9,
		825.92626953125,
		8.221832104027271e-10],
		"mesh":1,
		"rotation":[0.0,
		0.0,
		0.0,
		-1.0],
		"scale":[1.0,
		1.0,
		1.0]
	},
	{
		"name":"Tube.3",
		"translation":[0.3874427080154419,
		-155.32989501953126,
		0.0005154813989065588],
		"mesh":2,
		"rotation":[0.0,
		0.0,
		0.0,
		-1.0],
		"scale":[1.0,
		1.0,
		1.0]
	},
	{
		"name":"Tube",
		"translation":[0.3874427080154419,
		-83.35587310791016,
		0.0005154813989065588],
		"mesh":3,
		"rotation":[0.0,
		0.0,
		0.0,
		-1.0],
		"scale":[1.0,
		1.0,
		1.0]
	},
	{
		"name":"Tube.2",
		"translation":[0.3874427080154419,
		-277.7121887207031,
		0.0005154741811566055],
		"mesh":4,
		"rotation":[0.7071067690849304,
		-0.7071067690849304,
		-2.9792817518581319e-11,
		3.3478365912831268e-11],
		"scale":[1.0,
		1.0,
		1.0]
	},
	{
		"name":"Tube.4",
		"translation":[0.3874427080154419,
		-145.86471557617188,
		0.0005154813989065588],
		"mesh":5,
		"rotation":[0.0,
		0.0,
		0.0,
		-1.0],
		"scale":[1.0,
		1.0,
		1.0]
	},
	{
		"name":"튜브.3",
		"translation":[0.3874427080154419,
		-328.38140869140627,
		0.0005154813989065588],
		"mesh":6,
		"rotation":[0.0,
		0.0,
		0.0,
		-1.0],
		"scale":[1.0,
		1.0,
		1.0]
	},
	{
		"name":"Lathe.3",
		"translation":[0.3874427080154419,
		-1464.156005859375,
		0.0005154813989065588],
		"mesh":7,
		"rotation":[0.0,
		0.0,
		0.0,
		-1.0],
		"scale":[1.0,
		1.0,
		1.0]
	},
	{
		"name":"Lathe",
		"translation":[3.5519447326660158,
		-5727.2939453125,
		-0.39009907841682436],
		"mesh":8,
		"rotation":[1.0,
		-6.123234262925839e-17,
		6.123234262925839e-17,
		6.123234262925839e-17],
		"scale":[1.0,
		1.0,
		1.0]
	}],
	"accessors":[{
		"bufferView":0,
		"type":"SCALAR",
		"componentType":5123,
		"count":480,
		"byteOffset":0,
		"min":[0],
		"max":[479]
	},
	{
		"bufferView":1,
		"type":"VEC3",
		"componentType":5126,
		"count":480,
		"byteOffset":0,
		"min":[-25.6955509185791,
		-1018.1862182617188,
		-25.6955509185791],
		"max":[25.6955509185791,
		1018.1862182617188,
		25.6955509185791]
	},
	{
		"bufferView":1,
		"type":"VEC3",
		"componentType":5126,
		"count":480,
		"byteOffset":12,
		"min":[-0.9999391436576843,
		-1.0,
		-0.9999391436576843],
		"max":[0.9999391436576843,
		1.0,
		0.9999391436576843]
	},
	{
		"bufferView":1,
		"type":"VEC2",
		"componentType":5126,
		"count":480,
		"byteOffset":24,
		"min":[0.0,
		0.0],
		"max":[1.0,
		1.0]
	},
	{
		"bufferView":2,
		"type":"SCALAR",
		"componentType":5123,
		"count":52836,
		"byteOffset":0,
		"min":[0],
		"max":[52835]
	},
	{
		"bufferView":3,
		"type":"VEC3",
		"componentType":5126,
		"count":52836,
		"byteOffset":0,
		"min":[-444.7922058105469,
		-667.28564453125,
		-441.3457946777344],
		"max":[444.7922058105469,
		667.28564453125,
		441.3457946777344]
	},
	{
		"bufferView":3,
		"type":"VEC3",
		"componentType":5126,
		"count":52836,
		"byteOffset":12,
		"min":[-0.9999615550041199,
		-0.9999996423721314,
		-0.9997071623802185],
		"max":[0.9997856616973877,
		0.9999990463256836,
		0.9993506669998169]
	},
	{
		"bufferView":4,
		"type":"SCALAR",
		"componentType":5123,
		"count":2940,
		"byteOffset":0,
		"min":[0],
		"max":[2939]
	},
	{
		"bufferView":5,
		"type":"VEC3",
		"componentType":5126,
		"count":2940,
		"byteOffset":0,
		"min":[-1686.5640869140626,
		-192.09861755371095,
		-1687.4310302734376],
		"max":[1686.5640869140626,
		192.09861755371095,
		1687.4310302734376]
	},
	{
		"bufferView":5,
		"type":"VEC3",
		"componentType":5126,
		"count":2940,
		"byteOffset":12,
		"min":[-1.0,
		-0.9060512185096741,
		-0.9999433159828186],
		"max":[1.0,
		0.9295066595077515,
		0.9999433159828186]
	},
	{
		"bufferView":5,
		"type":"VEC2",
		"componentType":5126,
		"count":2940,
		"byteOffset":24,
		"min":[0.0,
		0.0],
		"max":[1.0,
		1.0]
	},
	{
		"bufferView":6,
		"type":"SCALAR",
		"componentType":5123,
		"count":2940,
		"byteOffset":0,
		"min":[0],
		"max":[2939]
	},
	{
		"bufferView":7,
		"type":"VEC3",
		"componentType":5126,
		"count":2940,
		"byteOffset":0,
		"min":[-1404.2869873046876,
		-301.758544921875,
		-1405.074462890625],
		"max":[1406.4854736328126,
		18.386720657348634,
		1407.1429443359376]
	},
	{
		"bufferView":7,
		"type":"VEC3",
		"componentType":5126,
		"count":2940,
		"byteOffset":12,
		"min":[-1.0,
		-1.0,
		-0.9999433159828186],
		"max":[1.0,
		0.9668413996696472,
		0.9999433159828186]
	},
	{
		"bufferView":7,
		"type":"VEC2",
		"componentType":5126,
		"count":2940,
		"byteOffset":24,
		"min":[0.0,
		0.0],
		"max":[1.0,
		1.0]
	},
	{
		"bufferView":8,
		"type":"SCALAR",
		"componentType":5123,
		"count":2940,
		"byteOffset":0,
		"min":[0],
		"max":[2939]
	},
	{
		"bufferView":9,
		"type":"VEC3",
		"componentType":5126,
		"count":2940,
		"byteOffset":0,
		"min":[-282.9446716308594,
		-1613.29931640625,
		-1613.3558349609376],
		"max":[107.4315185546875,
		1611.754638671875,
		1613.3558349609376]
	},
	{
		"bufferView":9,
		"type":"VEC3",
		"componentType":5126,
		"count":2940,
		"byteOffset":12,
		"min":[-0.9468242526054382,
		-1.0,
		-0.9999433159828186],
		"max":[0.9990071654319763,
		1.0,
		0.9999433159828186]
	},
	{
		"bufferView":9,
		"type":"VEC2",
		"componentType":5126,
		"count":2940,
		"byteOffset":24,
		"min":[0.0,
		0.0],
		"max":[1.0,
		1.0]
	},
	{
		"bufferView":10,
		"type":"SCALAR",
		"componentType":5123,
		"count":2940,
		"byteOffset":0,
		"min":[0],
		"max":[2939]
	},
	{
		"bufferView":11,
		"type":"VEC3",
		"componentType":5126,
		"count":2940,
		"byteOffset":0,
		"min":[-1855.1761474609376,
		-211.3034210205078,
		-1856.1297607421876],
		"max":[1855.1761474609376,
		211.3034210205078,
		1856.1297607421876]
	},
	{
		"bufferView":11,
		"type":"VEC3",
		"componentType":5126,
		"count":2940,
		"byteOffset":12,
		"min":[-1.0,
		-0.9751782417297363,
		-0.9999433159828186],
		"max":[1.0,
		0.9801116585731506,
		0.9999433159828186]
	},
	{
		"bufferView":11,
		"type":"VEC2",
		"componentType":5126,
		"count":2940,
		"byteOffset":24,
		"min":[0.0,
		0.0],
		"max":[1.0,
		1.0]
	},
	{
		"bufferView":12,
		"type":"SCALAR",
		"componentType":5123,
		"count":17640,
		"byteOffset":0,
		"min":[0],
		"max":[17639]
	},
	{
		"bufferView":13,
		"type":"VEC3",
		"componentType":5126,
		"count":17640,
		"byteOffset":0,
		"min":[-2037.687255859375,
		-354.4503479003906,
		-2037.687255859375],
		"max":[2037.687255859375,
		354.4503479003906,
		2037.687255859375]
	},
	{
		"bufferView":13,
		"type":"VEC3",
		"componentType":5126,
		"count":17640,
		"byteOffset":12,
		"min":[-1.0,
		-1.0,
		-0.9999713897705078],
		"max":[1.0,
		1.0,
		0.9999713897705078]
	},
	{
		"bufferView":13,
		"type":"VEC2",
		"componentType":5126,
		"count":17640,
		"byteOffset":24,
		"min":[0.0,
		-0.07684335112571717],
		"max":[1.0,
		1.0]
	},
	{
		"bufferView":14,
		"type":"SCALAR",
		"componentType":5123,
		"count":6882,
		"byteOffset":0,
		"min":[0],
		"max":[6881]
	},
	{
		"bufferView":15,
		"type":"VEC3",
		"componentType":5126,
		"count":6882,
		"byteOffset":0,
		"min":[-2014.4930419921876,
		-1748.82958984375,
		-2016.309814453125],
		"max":[2014.4930419921876,
		1748.82958984375,
		2016.309814453125]
	},
	{
		"bufferView":15,
		"type":"VEC3",
		"componentType":5126,
		"count":6882,
		"byteOffset":12,
		"min":[-0.999960720539093,
		-0.9971288442611694,
		-0.9990597367286682],
		"max":[0.999960720539093,
		0.9409023523330689,
		0.9990597367286682]
	},
	{
		"bufferView":15,
		"type":"VEC2",
		"componentType":5126,
		"count":6882,
		"byteOffset":24,
		"min":[0.0,
		0.0],
		"max":[1.0,
		1.0]
	},
	{
		"bufferView":16,
		"type":"SCALAR",
		"componentType":5123,
		"count":6882,
		"byteOffset":0,
		"min":[0],
		"max":[6881]
	},
	{
		"bufferView":17,
		"type":"VEC3",
		"componentType":5126,
		"count":6882,
		"byteOffset":0,
		"min":[-3071.047119140625,
		-953.0629272460938,
		-3073.816650390625],
		"max":[3071.047119140625,
		953.0629272460938,
		3073.816650390625]
	},
	{
		"bufferView":17,
		"type":"VEC3",
		"componentType":5126,
		"count":6882,
		"byteOffset":12,
		"min":[-0.9996921420097351,
		-0.9996324181556702,
		-0.9987923502922058],
		"max":[0.9996921420097351,
		0.9918261170387268,
		0.9987923502922058]
	},
	{
		"bufferView":17,
		"type":"VEC2",
		"componentType":5126,
		"count":6882,
		"byteOffset":24,
		"min":[0.0,
		0.0],
		"max":[1.0,
		1.0]
	}],
	"bufferViews":[{
		"buffer":0,
		"byteOffset":0,
		"byteLength":960,
		"target":34963
	},
	{
		"buffer":0,
		"byteOffset":960,
		"byteLength":15360,
		"target":34962,
		"byteStride":32
	},
	{
		"buffer":1,
		"byteOffset":0,
		"byteLength":105672,
		"target":34963
	},
	{
		"buffer":1,
		"byteOffset":105672,
		"byteLength":1268064,
		"target":34962,
		"byteStride":24
	},
	{
		"buffer":2,
		"byteOffset":0,
		"byteLength":5880,
		"target":34963
	},
	{
		"buffer":2,
		"byteOffset":5880,
		"byteLength":94080,
		"target":34962,
		"byteStride":32
	},
	{
		"buffer":3,
		"byteOffset":0,
		"byteLength":5880,
		"target":34963
	},
	{
		"buffer":3,
		"byteOffset":5880,
		"byteLength":94080,
		"target":34962,
		"byteStride":32
	},
	{
		"buffer":4,
		"byteOffset":0,
		"byteLength":5880,
		"target":34963
	},
	{
		"buffer":4,
		"byteOffset":5880,
		"byteLength":94080,
		"target":34962,
		"byteStride":32
	},
	{
		"buffer":5,
		"byteOffset":0,
		"byteLength":5880,
		"target":34963
	},
	{
		"buffer":5,
		"byteOffset":5880,
		"byteLength":94080,
		"target":34962,
		"byteStride":32
	},
	{
		"buffer":6,
		"byteOffset":0,
		"byteLength":35280,
		"target":34963
	},
	{
		"buffer":6,
		"byteOffset":35280,
		"byteLength":564480,
		"target":34962,
		"byteStride":32
	},
	{
		"buffer":7,
		"byteOffset":0,
		"byteLength":13764,
		"target":34963
	},
	{
		"buffer":7,
		"byteOffset":13764,
		"byteLength":220224,
		"target":34962,
		"byteStride":32
	},
	{
		"buffer":8,
		"byteOffset":0,
		"byteLength":13764,
		"target":34963
	},
	{
		"buffer":8,
		"byteOffset":13764,
		"byteLength":220224,
		"target":34962,
		"byteStride":32
	}],
	"buffers":[{
		"uri":"data:application/octet-stream;base64,",
		"byteLength":16320
	},
	{
		"uri":"data:application/octet-stream;base64,",
		"byteLength":1373736
	},
	{
		"uri":"data:application/octet-stream;base64,",
		"byteLength":99960
	},
	{
		"uri":"data:application/octet-stream;base64,",
		"byteLength":99960
	},
	{
		"uri":"data:application/octet-stream;base64,",
		"byteLength":99960
	},
	{
		"uri":"data:application/octet-stream;base64,",
		"byteLength":99960
	},
	{
		"uri":"data:application/octet-stream;base64,",
		"byteLength":599760
	},
	{
		"uri":"data:application/octet-stream;base64,",
		"byteLength":233988
	},
	{
		"uri":"data:application/octet-stream;base64,",
		"byteLength":233988
	}],
	"materials":[{
		"pbrMetallicRoughness":{
			"baseColorFactor":[0.75,
			0.75,
			0.75,
			1.0],
			"metallicFactor":0.0,
			"roughnessFactor":0.5
		},
		"emissiveFactor":[0.0,
		0.0,
		0.0],
		"alphaMode":"OPAQUE",
		"doubleSided":false,
		"name":"Default"
	}]
}