{
	"asset":{
		"version":"2.0",
		"generator":"Maxon Cinema 4D 2026.0.0 (#200000219)"
	},
	"scenes":[{
		"nodes":[0]
	}],
	"nodes":[{
		"name":"Group",
		"children":[1,
		2,
		3,
		4,
		5,
		6]
	},
	{
		"name":"Cube.4",
		"mesh":0,
		"translation":[0.024104466661810876,
		0.8506849408149719,
		0.5321018695831299],
		"rotation":[0.0,
		0.0,
		0.0,
		-1.0],
		"scale":[1.0,
		1.0,
		1.0]
	},
	{
		"name":"Cube.3",
		"mesh":1,
		"translation":[0.024104466661810876,
		0.2801131308078766,
		0.006097881123423576],
		"rotation":[0.0,
		0.0,
		0.0,
		-1.0],
		"scale":[1.0,
		1.0,
		1.0]
	},
	{
		"name":"Cube.2",
		"mesh":2,
		"translation":[0.024104466661810876,
		-0.2906729280948639,
		-0.5489771962165833],
		"rotation":[0.0,
		0.0,
		0.0,
		-1.0],
		"scale":[1.0,
		1.0,
		1.0]
	},
	{
		"name":"Cube.1",
		"mesh":3,
		"translation":[0.024104466661810876,
		-0.8610560894012451,
		-1.0469048023223878],
		"rotation":[0.0,
		0.0,
		0.0,
		-1.0],
		"scale":[1.0,
		1.0,
		1.0]
	},
	{
		"name":"Cube",
		"mesh":4,
		"translation":[0.024104466661810876,
		-1.4318422079086304,
		-1.5994513034820557],
		"rotation":[0.0,
		0.0,
		0.0,
		-1.0],
		"scale":[1.0,
		1.0,
		1.0]
	},
	{
		"name":"Boolean",
		"translation":[-0.12052232772111893,
		1.452773094177246,
		2.6571335792541506],
		"rotation":[0.0,
		0.0,
		0.0,
		-1.0],
		"scale":[1.0,
		1.0,
		1.0],
		"children":[7]
	},
	{
		"name":"Polygon",
		"children":[8,
		9]
	},
	{
		"name":"Polygon-Mat.11",
		"mesh":5
	},
	{
		"name":"Polygon-Mat.11",
		"mesh":6
	}],
	"meshes":[{
		"name":"Cube.4",
		"primitives":[{
			"attributes":{
				"POSITION":1,
				"NORMAL":2,
				"TEXCOORD_0":3
			},
			"indices":0,
			"material":0
		}]
	},
	{
		"name":"Cube.3",
		"primitives":[{
			"attributes":{
				"POSITION":5,
				"NORMAL":6,
				"TEXCOORD_0":7
			},
			"indices":4,
			"material":0
		}]
	},
	{
		"name":"Cube.2",
		"primitives":[{
			"attributes":{
				"POSITION":9,
				"NORMAL":10,
				"TEXCOORD_0":11
			},
			"indices":8,
			"material":0
		}]
	},
	{
		"name":"Cube.1",
		"primitives":[{
			"attributes":{
				"POSITION":13,
				"NORMAL":14,
				"TEXCOORD_0":15
			},
			"indices":12,
			"material":0
		}]
	},
	{
		"name":"Cube",
		"primitives":[{
			"attributes":{
				"POSITION":17,
				"NORMAL":18,
				"TEXCOORD_0":19
			},
			"indices":16,
			"material":0
		}]
	},
	{
		"name":"Polygon-Mat.11",
		"primitives":[{
			"attributes":{
				"POSITION":21,
				"NORMAL":22,
				"TEXCOORD_0":23
			},
			"indices":20,
			"material":0
		}]
	},
	{
		"name":"Polygon-Mat.11",
		"primitives":[{
			"attributes":{
				"POSITION":25,
				"NORMAL":26,
				"TEXCOORD_0":27
			},
			"indices":24,
			"material":0
		}]
	}],
	"accessors":[{
		"bufferView":0,
		"min":[0],
		"type":"SCALAR",
		"componentType":5123,
		"count":36,
		"max":[35],
		"byteOffset":0
	},
	{
		"bufferView":1,
		"min":[-1.4774847030639649,
		-0.28161653876304629,
		-1.8050628900527955],
		"type":"VEC3",
		"componentType":5126,
		"count":36,
		"max":[1.4774847030639649,
		0.28161653876304629,
		1.8050628900527955],
		"byteOffset":0
	},
	{
		"bufferView":1,
		"min":[-1.0,
		-1.0,
		-1.0],
		"type":"VEC3",
		"componentType":5126,
		"count":36,
		"max":[1.0,
		1.0,
		1.0],
		"byteOffset":12
	},
	{
		"bufferView":1,
		"min":[0.0,
		0.0],
		"type":"VEC2",
		"componentType":5126,
		"count":36,
		"max":[1.0,
		1.0],
		"byteOffset":24
	},
	{
		"bufferView":2,
		"min":[0],
		"type":"SCALAR",
		"componentType":5123,
		"count":36,
		"max":[35],
		"byteOffset":0
	},
	{
		"bufferView":3,
		"min":[-1.4774847030639649,
		-0.28161653876304629,
		-1.8050628900527955],
		"type":"VEC3",
		"componentType":5126,
		"count":36,
		"max":[1.4774847030639649,
		0.28161653876304629,
		1.8050628900527955],
		"byteOffset":0
	},
	{
		"bufferView":3,
		"min":[-1.0,
		-1.0,
		-1.0],
		"type":"VEC3",
		"componentType":5126,
		"count":36,
		"max":[1.0,
		1.0,
		1.0],
		"byteOffset":12
	},
	{
		"bufferView":3,
		"min":[0.0,
		0.0],
		"type":"VEC2",
		"componentType":5126,
		"count":36,
		"max":[1.0,
		1.0],
		"byteOffset":24
	},
	{
		"bufferView":4,
		"min":[0],
		"type":"SCALAR",
		"componentType":5123,
		"count":36,
		"max":[35],
		"byteOffset":0
	},
	{
		"bufferView":5,
		"min":[-1.4774847030639649,
		-0.28161653876304629,
		-1.8050628900527955],
		"type":"VEC3",
		"componentType":5126,
		"count":36,
		"max":[1.4774847030639649,
		0.28161653876304629,
		1.8050628900527955],
		"byteOffset":0
	},
	{
		"bufferView":5,
		"min":[-1.0,
		-1.0,
		-1.0],
		"type":"VEC3",
		"componentType":5126,
		"count":36,
		"max":[1.0,
		1.0,
		1.0],
		"byteOffset":12
	},
	{
		"bufferView":5,
		"min":[0.0,
		0.0],
		"type":"VEC2",
		"componentType":5126,
		"count":36,
		"max":[1.0,
		1.0],
		"byteOffset":24
	},
	{
		"bufferView":6,
		"min":[0],
		"type":"SCALAR",
		"componentType":5123,
		"count":36,
		"max":[35],
		"byteOffset":0
	},
	{
		"bufferView":7,
		"min":[-1.4774847030639649,
		-0.28161653876304629,
		-1.8050628900527955],
		"type":"VEC3",
		"componentType":5126,
		"count":36,
		"max":[1.4774847030639649,
		0.28161653876304629,
		1.8050628900527955],
		"byteOffset":0
	},
	{
		"bufferView":7,
		"min":[-1.0,
		-1.0,
		-1.0],
		"type":"VEC3",
		"componentType":5126,
		"count":36,
		"max":[1.0,
		1.0,
		1.0],
		"byteOffset":12
	},
	{
		"bufferView":7,
		"min":[0.0,
		0.0],
		"type":"VEC2",
		"componentType":5126,
		"count":36,
		"max":[1.0,
		1.0],
		"byteOffset":24
	},
	{
		"bufferView":8,
		"min":[0],
		"type":"SCALAR",
		"componentType":5123,
		"count":36,
		"max":[35],
		"byteOffset":0
	},
	{
		"bufferView":9,
		"min":[-1.4774847030639649,
		-0.28161653876304629,
		-1.8050628900527955],
		"type":"VEC3",
		"componentType":5126,
		"count":36,
		"max":[1.4774847030639649,
		0.28161653876304629,
		1.8050628900527955],
		"byteOffset":0
	},
	{
		"bufferView":9,
		"min":[-1.0,
		-1.0,
		-1.0],
		"type":"VEC3",
		"componentType":5126,
		"count":36,
		"max":[1.0,
		1.0,
		1.0],
		"byteOffset":12
	},
	{
		"bufferView":9,
		"min":[0.0,
		0.0],
		"type":"VEC2",
		"componentType":5126,
		"count":36,
		"max":[1.0,
		1.0],
		"byteOffset":24
	},
	{
		"bufferView":10,
		"min":[0],
		"type":"SCALAR",
		"componentType":5123,
		"count":30,
		"max":[29],
		"byteOffset":0
	},
	{
		"bufferView":11,
		"min":[-1.1701024770736695,
		0.07341191172599793,
		-3.039365530014038],
		"type":"VEC3",
		"componentType":5126,
		"count":30,
		"max":[1.446066975593567,
		0.19222158193588258,
		1.7390029430389405],
		"byteOffset":0
	},
	{
		"bufferView":11,
		"min":[-1.0,
		0.0,
		-1.0],
		"type":"VEC3",
		"componentType":5126,
		"count":30,
		"max":[1.0,
		1.0,
		1.0],
		"byteOffset":12
	},
	{
		"bufferView":11,
		"min":[0.0,
		0.0],
		"type":"VEC2",
		"componentType":5126,
		"count":30,
		"max":[1.0,
		1.0],
		"byteOffset":24
	},
	{
		"bufferView":12,
		"min":[0],
		"type":"SCALAR",
		"componentType":5123,
		"count":54,
		"max":[53],
		"byteOffset":0
	},
	{
		"bufferView":13,
		"min":[-1.3459196090698243,
		-3.1515800952911379,
		-3.1622109413146974],
		"type":"VEC3",
		"componentType":5126,
		"count":54,
		"max":[1.6218841075897217,
		0.19222158193588258,
		1.86184823513031],
		"byteOffset":0
	},
	{
		"bufferView":13,
		"min":[-1.0,
		-1.0,
		-1.0],
		"type":"VEC3",
		"componentType":5126,
		"count":54,
		"max":[1.0,
		1.0,
		1.0],
		"byteOffset":12
	},
	{
		"bufferView":13,
		"min":[0.0,
		0.0],
		"type":"VEC2",
		"componentType":5126,
		"count":54,
		"max":[1.0,
		1.0],
		"byteOffset":24
	}],
	"bufferViews":[{
		"buffer":0,
		"target":34963,
		"byteOffset":0,
		"byteLength":72
	},
	{
		"buffer":0,
		"target":34962,
		"byteOffset":72,
		"byteLength":1152,
		"byteStride":32
	},
	{
		"buffer":1,
		"target":34963,
		"byteOffset":0,
		"byteLength":72
	},
	{
		"buffer":1,
		"target":34962,
		"byteOffset":72,
		"byteLength":1152,
		"byteStride":32
	},
	{
		"buffer":2,
		"target":34963,
		"byteOffset":0,
		"byteLength":72
	},
	{
		"buffer":2,
		"target":34962,
		"byteOffset":72,
		"byteLength":1152,
		"byteStride":32
	},
	{
		"buffer":3,
		"target":34963,
		"byteOffset":0,
		"byteLength":72
	},
	{
		"buffer":3,
		"target":34962,
		"byteOffset":72,
		"byteLength":1152,
		"byteStride":32
	},
	{
		"buffer":4,
		"target":34963,
		"byteOffset":0,
		"byteLength":72
	},
	{
		"buffer":4,
		"target":34962,
		"byteOffset":72,
		"byteLength":1152,
		"byteStride":32
	},
	{
		"buffer":5,
		"target":34963,
		"byteOffset":0,
		"byteLength":60
	},
	{
		"buffer":5,
		"target":34962,
		"byteOffset":60,
		"byteLength":960,
		"byteStride":32
	},
	{
		"buffer":6,
		"target":34963,
		"byteOffset":0,
		"byteLength":108
	},
	{
		"buffer":6,
		"target":34962,
		"byteOffset":108,
		"byteLength":1728,
		"byteStride":32
	}],
	"buffers":[{
		"uri":"data:application/octet-stream;base64,",
		"byteLength":1224
	},
	{
		"uri":"data:application/octet-stream;base64,",
		"byteLength":1224
	},
	{
		"uri":"data:application/octet-stream;base64,",
		"byteLength":1224
	},
	{
		"uri":"data:application/octet-stream;base64,",
		"byteLength":1224
	},
	{
		"uri":"data:application/octet-stream;base64,",
		"byteLength":1224
	},
	{
		"uri":"data:application/octet-stream;base64,",
		"byteLength":1020
	},
	{
		"uri":"data:application/octet-stream;base64,",
		"byteLength":1836
	}],
	"materials":[{
		"pbrMetallicRoughness":{
			"baseColorFactor":[0.2699999511241913,
			0.2699999511241913,
			0.2699999511241913,
			1.0],
			"metallicFactor":0.63,
			"roughnessFactor":0.32
		},
		"emissiveFactor":[0.0,
		0.0,
		0.0],
		"alphaMode":"OPAQUE",
		"doubleSided":false,
		"name":"Mat.11"
	}]
}