{
	"asset":{
		"version":"2.0",
		"generator":"Maxon Cinema 4D 2025.1.2 (#200000219)"
	},
	"scenes":[{
		"nodes":[0]
	}],
	"samplers":[{
		"magFilter":9729,
		"minFilter":9729,
		"wrapS":10497,
		"wrapT":10497
	}],
	"nodes":[{
		"name":"돌2",
		"mesh":0,
		"translation":[0.0,
		0.0,
		0.0],
		"rotation":[0.0,
		0.0,
		0.7071067690849304,
		0.7071067690849304],
		"scale":[1.0,
		1.0,
		1.0]
	}],
	"meshes":[{
		"name":"돌2",
		"primitives":[{
			"attributes":{
				"POSITION":1,
				"NORMAL":2,
				"TEXCOORD_0":3
			},
			"indices":0,
			"material":0
		}]
	}],
	"accessors":[{
		"bufferView":0,
		"type":"SCALAR",
		"componentType":5123,
		"count":1110,
		"byteOffset":0,
		"min":[0],
		"max":[1109]
	},
	{
		"bufferView":1,
		"type":"VEC3",
		"componentType":5126,
		"count":1110,
		"byteOffset":0,
		"min":[-0.6172779202461243,
		-0.1830369532108307,
		-0.6189514994621277],
		"max":[0.6195096969604492,
		0.1830369532108307,
		0.6189514994621277]
	},
	{
		"bufferView":1,
		"type":"VEC3",
		"componentType":5126,
		"count":1110,
		"byteOffset":12,
		"min":[-0.9984025955200195,
		-1.0,
		-0.9999011158943176],
		"max":[1.0,
		1.0,
		0.9999011158943176]
	},
	{
		"bufferView":1,
		"type":"VEC2",
		"componentType":5126,
		"count":1110,
		"byteOffset":24,
		"min":[0.0,
		0.20588234066963197],
		"max":[1.3333333730697632,
		0.7941175699234009]
	}],
	"bufferViews":[{
		"buffer":0,
		"target":34963,
		"byteOffset":0,
		"byteLength":2220
	},
	{
		"buffer":0,
		"target":34962,
		"byteOffset":2220,
		"byteLength":35520,
		"byteStride":32
	}],
	"buffers":[{
		"uri":"data:application/octet-stream;base64,",
		"byteLength":37740
	}],
	"images":[{
		"uri":"data:image/png;base64,"
	}],
	"textures":[{
		"sampler":0,
		"source":0
	}],
	"materials":[{
		"pbrMetallicRoughness":{
			"baseColorTexture":{
				"index":0
			},
			"baseColorFactor":[1.0,
			1.0,
			1.0,
			1.0],
			"metallicFactor":1.0,
			"roughnessFactor":1.0
		},
		"emissiveFactor":[0.0,
		0.0,
		0.0],
		"alphaMode":"OPAQUE",
		"doubleSided":false,
		"name":"Mat.4"
	}]
}