{
	"asset":{
		"version":"2.0",
		"generator":"Maxon Cinema 4D 2025.1.2 (#200000219)"
	},
	"scenes":[{
		"nodes":[0]
	}],
	"nodes":[{
		"name":"button",
		"translation":[3.328718900680542,
		0.9085572957992554,
		0.979507327079773],
		"rotation":[0.0,
		0.0,
		0.059681668877601626,
		0.9982174634933472],
		"scale":[1.0,
		1.0,
		1.0],
		"children":[1,
		2,
		3,
		4]
	},
	{
		"name":"Boolean",
		"mesh":0,
		"translation":[15.167606353759766,
		4.500819683074951,
		14.681617736816407],
		"rotation":[0.0,
		0.0,
		0.018787309527397157,
		-0.9998235106468201],
		"scale":[1.0,
		1.0,
		1.0]
	},
	{
		"name":"Boolean.1",
		"mesh":1,
		"translation":[15.29987621307373,
		7.202256202697754,
		14.681617736816407],
		"rotation":[0.0,
		0.0,
		0.018787309527397157,
		-0.9998235106468201],
		"scale":[1.0,
		1.0,
		1.0]
	},
	{
		"name":"Sphere",
		"mesh":2,
		"translation":[-0.003087311517447233,
		3.1030678749084474,
		0.0005156896077096462],
		"rotation":[0.0,
		0.0,
		0.018787309527397157,
		-0.9998235106468201],
		"scale":[1.0,
		1.0,
		1.0]
	},
	{
		"name":"Tube.2",
		"mesh":3,
		"translation":[0.11660262197256088,
		2.1622955799102785,
		-0.0005156896077096462],
		"rotation":[0.0,
		0.0,
		0.018787309527397157,
		-0.9998235106468201],
		"scale":[1.0,
		1.0,
		1.0]
	}],
	"meshes":[{
		"name":"Boolean",
		"primitives":[{
			"attributes":{
				"POSITION":1,
				"NORMAL":2,
				"TEXCOORD_0":3
			},
			"indices":0,
			"material":0
		}]
	},
	{
		"name":"Boolean.1",
		"primitives":[{
			"attributes":{
				"POSITION":5,
				"NORMAL":6,
				"TEXCOORD_0":7
			},
			"indices":4,
			"material":0
		}]
	},
	{
		"name":"Sphere",
		"primitives":[{
			"attributes":{
				"POSITION":9,
				"NORMAL":10,
				"TEXCOORD_0":11
			},
			"indices":8,
			"material":1
		}]
	},
	{
		"name":"Tube.2",
		"primitives":[{
			"attributes":{
				"POSITION":13,
				"NORMAL":14,
				"TEXCOORD_0":15
			},
			"indices":12,
			"material":0
		}]
	}],
	"accessors":[{
		"bufferView":0,
		"type":"SCALAR",
		"componentType":5123,
		"count":1344,
		"byteOffset":0,
		"min":[0],
		"max":[1343]
	},
	{
		"bufferView":1,
		"type":"VEC3",
		"componentType":5126,
		"count":1344,
		"byteOffset":0,
		"min":[-14.881896018981934,
		-4.379415035247803,
		-15.144105911254883],
		"max":[-14.63557243347168,
		-3.445838689804077,
		-14.209198951721192]
	},
	{
		"bufferView":1,
		"type":"VEC3",
		"componentType":5126,
		"count":1344,
		"byteOffset":12,
		"min":[-0.9999356865882874,
		-0.9999226927757263,
		-1.0],
		"max":[0.9999682307243347,
		0.9999226927757263,
		1.0]
	},
	{
		"bufferView":1,
		"type":"VEC2",
		"componentType":5126,
		"count":1344,
		"byteOffset":24,
		"min":[0.0,
		0.0],
		"max":[1.0,
		1.0]
	},
	{
		"bufferView":2,
		"type":"SCALAR",
		"componentType":5123,
		"count":480,
		"byteOffset":0,
		"min":[0],
		"max":[479]
	},
	{
		"bufferView":3,
		"type":"VEC3",
		"componentType":5126,
		"count":480,
		"byteOffset":0,
		"min":[-15.10486125946045,
		-6.948025226593018,
		-15.004560470581055],
		"max":[-14.92337703704834,
		-6.293221473693848,
		-14.348743438720704]
	},
	{
		"bufferView":3,
		"type":"VEC3",
		"componentType":5126,
		"count":480,
		"byteOffset":12,
		"min":[-0.9121779799461365,
		-0.9999226927757263,
		-1.0],
		"max":[1.0,
		0.9977403879165649,
		1.0]
	},
	{
		"bufferView":3,
		"type":"VEC2",
		"componentType":5126,
		"count":480,
		"byteOffset":24,
		"min":[0.0,
		0.0],
		"max":[1.0,
		1.0]
	},
	{
		"bufferView":4,
		"type":"SCALAR",
		"componentType":5123,
		"count":2880,
		"byteOffset":0,
		"min":[0],
		"max":[2879]
	},
	{
		"bufferView":5,
		"type":"VEC3",
		"componentType":5126,
		"count":2880,
		"byteOffset":0,
		"min":[-0.23491261899471284,
		-0.23491261899471284,
		-0.23491261899471284],
		"max":[0.23491261899471284,
		0.23491261899471284,
		0.23491261899471284]
	},
	{
		"bufferView":5,
		"type":"VEC3",
		"componentType":5126,
		"count":2880,
		"byteOffset":12,
		"min":[-1.0,
		-1.0,
		-1.0],
		"max":[1.0,
		1.0,
		1.0]
	},
	{
		"bufferView":5,
		"type":"VEC2",
		"componentType":5126,
		"count":2880,
		"byteOffset":24,
		"min":[0.0,
		0.0],
		"max":[1.0,
		1.0]
	},
	{
		"bufferView":6,
		"type":"SCALAR",
		"componentType":5123,
		"count":960,
		"byteOffset":0,
		"min":[0],
		"max":[959]
	},
	{
		"bufferView":7,
		"type":"VEC3",
		"componentType":5126,
		"count":960,
		"byteOffset":0,
		"min":[-0.2818320095539093,
		-0.7595303654670715,
		-0.08029243350028992],
		"max":[0.08237558603286743,
		1.1054364442825318,
		0.08029243350028992]
	},
	{
		"bufferView":7,
		"type":"VEC3",
		"componentType":5126,
		"count":960,
		"byteOffset":12,
		"min":[-0.9999982118606567,
		-1.0,
		-1.0],
		"max":[0.9999980926513672,
		0.8905186057090759,
		1.0]
	},
	{
		"bufferView":7,
		"type":"VEC2",
		"componentType":5126,
		"count":960,
		"byteOffset":24,
		"min":[0.0,
		0.0],
		"max":[1.0,
		1.0]
	}],
	"bufferViews":[{
		"buffer":0,
		"target":34963,
		"byteOffset":0,
		"byteLength":2688
	},
	{
		"buffer":0,
		"target":34962,
		"byteOffset":2688,
		"byteLength":43008,
		"byteStride":32
	},
	{
		"buffer":1,
		"target":34963,
		"byteOffset":0,
		"byteLength":960
	},
	{
		"buffer":1,
		"target":34962,
		"byteOffset":960,
		"byteLength":15360,
		"byteStride":32
	},
	{
		"buffer":2,
		"target":34963,
		"byteOffset":0,
		"byteLength":5760
	},
	{
		"buffer":2,
		"target":34962,
		"byteOffset":5760,
		"byteLength":92160,
		"byteStride":32
	},
	{
		"buffer":3,
		"target":34963,
		"byteOffset":0,
		"byteLength":1920
	},
	{
		"buffer":3,
		"target":34962,
		"byteOffset":1920,
		"byteLength":30720,
		"byteStride":32
	}],
	"buffers":[{
		"uri":"data:application/octet-stream;base64,",
		"byteLength":45696
	},
	{
		"uri":"data:application/octet-stream;base64,",
		"byteLength":16320
	},
	{
		"uri":"data:application/octet-stream;base64,",
		"byteLength":97920
	},
	{
		"uri":"data:application/octet-stream;base64,",
		"byteLength":32640
	}],
	"materials":[{
		"pbrMetallicRoughness":{
			"baseColorFactor":[0.76,
			0.76,
			0.76,
			1.0],
			"metallicFactor":0.44,
			"roughnessFactor":0.17
		},
		"emissiveFactor":[0.0,
		0.0,
		0.0],
		"alphaMode":"OPAQUE",
		"doubleSided":false,
		"name":"Mat.11"
	},
	{
		"pbrMetallicRoughness":{
			"baseColorFactor":[0.58,
			0.11019999999999997,
			0.13369000000000029,
			1.0],
			"metallicFactor":0.3,
			"roughnessFactor":0.5
		},
		"emissiveFactor":[0.1,
		0.063,
		0.063],
		"alphaMode":"OPAQUE",
		"doubleSided":false,
		"name":"Mat.3"
	}]
}