{
	"asset":{
		"version":"2.0",
		"generator":"Maxon Cinema 4D 2025.1.2 (#200000219)"
	},
	"scenes":[{
		"nodes":[0,
		1]
	}],
	"samplers":[{
		"magFilter":9729,
		"minFilter":9729,
		"wrapS":10497,
		"wrapT":10497
	}],
	"nodes":[{
		"name":"최종 머신",
		"translation":[4.409898281097412,
		2.661700963973999,
		-1.0371785163879395],
		"rotation":[0.0,
		0.0,
		0.0,
		-1.0],
		"scale":[1.0,
		1.0,
		1.0],
		"children":[2,
		3,
		4,
		5,
		6,
		7,
		8,
		9]
	},
	{
		"name":"Cube",
		"mesh":0,
		"translation":[4.988005638122559,
		1.149903416633606,
		-0.14315518736839295],
		"rotation":[-0.11452510952949524,
		0.0,
		0.0,
		-0.9934203624725342],
		"scale":[1.0,
		1.0,
		1.0]
	},
	{
		"name":"Boolean.1",
		"translation":[-4.409898281097412,
		-2.3053226470947267,
		1.0371785163879395],
		"rotation":[0.0,
		0.0,
		0.0,
		-1.0],
		"scale":[1.0,
		1.0,
		1.0],
		"children":[10]
	},
	{
		"name":"Cube.5",
		"mesh":1,
		"translation":[0.5733972191810608,
		-3.445326328277588,
		1.47294282913208],
		"rotation":[0.0,
		0.0,
		0.0,
		-1.0],
		"scale":[1.0,
		1.0,
		1.0]
	},
	{
		"name":"Cube.4",
		"mesh":2,
		"translation":[0.5733972191810608,
		-3.0909781455993654,
		1.47294282913208],
		"rotation":[0.0,
		0.0,
		0.0,
		-1.0],
		"scale":[1.0,
		1.0,
		1.0]
	},
	{
		"name":"Cube.3",
		"mesh":3,
		"translation":[0.5733972191810608,
		-2.7409780025482179,
		1.47294282913208],
		"rotation":[0.0,
		0.0,
		0.0,
		-1.0],
		"scale":[1.0,
		1.0,
		1.0]
	},
	{
		"name":"Cube.2",
		"mesh":4,
		"translation":[0.5848448872566223,
		1.4137359857559205,
		0.8026739954948425],
		"rotation":[0.0,
		0.0,
		0.0,
		-1.0],
		"scale":[1.0,
		1.0,
		1.0]
	},
	{
		"name":"Cube",
		"mesh":5,
		"translation":[0.5876138806343079,
		1.4137359857559205,
		0.7941776514053345],
		"rotation":[0.0,
		0.0,
		0.0,
		-1.0],
		"scale":[1.0,
		1.0,
		1.0]
	},
	{
		"name":"Boolean",
		"mesh":6,
		"translation":[0.6252849102020264,
		-0.6972850561141968,
		1.3882427215576172],
		"rotation":[0.0,
		0.0,
		0.0,
		-1.0],
		"scale":[1.0,
		1.0,
		1.0]
	},
	{
		"name":"메인머신.1",
		"translation":[0.30643194913864138,
		-1.6009031534194947,
		0.9287188053131104],
		"rotation":[0.0,
		0.0,
		0.0,
		-1.0],
		"scale":[1.0,
		1.0,
		1.0],
		"children":[11]
	},
	{
		"name":"Polygon",
		"mesh":7
	},
	{
		"name":"슬롯머신.90도.9",
		"translation":[0.239686518907547,
		1.6662274599075318,
		-0.1587975174188614],
		"rotation":[0.0,
		0.0,
		0.0,
		-1.0],
		"scale":[1.0,
		1.0,
		1.0],
		"children":[12,
		13,
		14,
		15,
		16,
		17,
		18]
	},
	{
		"name":"Cube",
		"mesh":8,
		"translation":[0.055672042071819308,
		0.16637885570526124,
		1.1856950521469117],
		"rotation":[0.0,
		0.0,
		0.0,
		-1.0],
		"scale":[1.0,
		1.0,
		1.0]
	},
	{
		"name":"Null.5",
		"translation":[0.046633318066596988,
		0.4488624036312103,
		4.6206231117248539],
		"rotation":[-0.04070401191711426,
		0.0,
		0.0,
		-0.999171257019043],
		"scale":[1.0,
		1.0,
		1.0],
		"children":[19]
	},
	{
		"name":"Boolean",
		"translation":[-0.13744205236434937,
		-2.562765598297119,
		2.675938367843628],
		"rotation":[-0.018850024789571763,
		0.0,
		0.0,
		-0.9998223185539246],
		"scale":[1.0,
		1.0,
		1.0],
		"children":[20]
	},
	{
		"name":"Cube.3",
		"mesh":9,
		"translation":[0.03198905661702156,
		-0.7516565918922424,
		-0.27027270197868349],
		"rotation":[0.0,
		0.0,
		0.0,
		-1.0],
		"scale":[1.0,
		1.0,
		1.0]
	},
	{
		"name":"Cube.1",
		"mesh":10,
		"translation":[0.041495371609926227,
		1.3484116792678834,
		0.0242563895881176],
		"rotation":[0.0,
		0.0,
		0.0,
		-1.0],
		"scale":[1.0,
		1.0,
		1.0]
	},
	{
		"name":"Boolean",
		"mesh":11,
		"translation":[0.10862042009830475,
		-1.472964882850647,
		0.5582360625267029],
		"rotation":[0.0,
		0.0,
		0.0,
		-1.0],
		"scale":[1.0,
		1.0,
		1.0]
	},
	{
		"name":"Cube",
		"mesh":12,
		"translation":[0.027161072939634324,
		-0.5020177960395813,
		-0.2994607985019684],
		"rotation":[0.0,
		0.0,
		0.0,
		-1.0],
		"scale":[1.0,
		1.0,
		1.0]
	},
	{
		"name":"Boolean",
		"mesh":13,
		"translation":[-0.006996968761086464,
		-0.6702615022659302,
		-5.697242736816406],
		"rotation":[-0.03531641140580177,
		0.0,
		0.0,
		-0.9993761777877808],
		"scale":[1.0,
		1.0,
		1.0]
	},
	{
		"name":"Polygon",
		"mesh":14
	}],
	"meshes":[{
		"name":"Cube",
		"primitives":[{
			"attributes":{
				"POSITION":1,
				"NORMAL":2,
				"TEXCOORD_0":3
			},
			"indices":0,
			"material":0
		}]
	},
	{
		"name":"Cube.5",
		"primitives":[{
			"attributes":{
				"POSITION":5,
				"NORMAL":6,
				"TEXCOORD_0":7
			},
			"indices":4,
			"material":1
		}]
	},
	{
		"name":"Cube.4",
		"primitives":[{
			"attributes":{
				"POSITION":9,
				"NORMAL":10,
				"TEXCOORD_0":11
			},
			"indices":8,
			"material":1
		}]
	},
	{
		"name":"Cube.3",
		"primitives":[{
			"attributes":{
				"POSITION":13,
				"NORMAL":14,
				"TEXCOORD_0":15
			},
			"indices":12,
			"material":1
		}]
	},
	{
		"name":"Cube.2",
		"primitives":[{
			"attributes":{
				"POSITION":17,
				"NORMAL":18,
				"TEXCOORD_0":19
			},
			"indices":16,
			"material":1
		}]
	},
	{
		"name":"Cube",
		"primitives":[{
			"attributes":{
				"POSITION":21,
				"NORMAL":22,
				"TEXCOORD_0":23
			},
			"indices":20,
			"material":2
		}]
	},
	{
		"name":"Boolean",
		"primitives":[{
			"attributes":{
				"POSITION":25,
				"NORMAL":26,
				"TEXCOORD_0":27
			},
			"indices":24,
			"material":1
		}]
	},
	{
		"name":"Polygon",
		"primitives":[{
			"attributes":{
				"POSITION":29,
				"NORMAL":30,
				"TEXCOORD_0":31
			},
			"indices":28,
			"material":1
		}]
	},
	{
		"name":"Cube",
		"primitives":[{
			"attributes":{
				"POSITION":33,
				"NORMAL":34,
				"TEXCOORD_0":35
			},
			"indices":32,
			"material":1
		}]
	},
	{
		"name":"Cube.3",
		"primitives":[{
			"attributes":{
				"POSITION":37,
				"NORMAL":38,
				"TEXCOORD_0":39
			},
			"indices":36,
			"material":3
		}]
	},
	{
		"name":"Cube.1",
		"primitives":[{
			"attributes":{
				"POSITION":41,
				"NORMAL":42,
				"TEXCOORD_0":43
			},
			"indices":40,
			"material":2
		}]
	},
	{
		"name":"Boolean",
		"primitives":[{
			"attributes":{
				"POSITION":45,
				"NORMAL":46,
				"TEXCOORD_0":47
			},
			"indices":44,
			"material":3
		}]
	},
	{
		"name":"Cube",
		"primitives":[{
			"attributes":{
				"POSITION":49,
				"NORMAL":50,
				"TEXCOORD_0":51
			},
			"indices":48,
			"material":3
		}]
	},
	{
		"name":"Boolean",
		"primitives":[{
			"attributes":{
				"POSITION":53,
				"NORMAL":54,
				"TEXCOORD_0":55
			},
			"indices":52,
			"material":3
		}]
	},
	{
		"name":"Polygon",
		"primitives":[{
			"attributes":{
				"POSITION":57,
				"NORMAL":58,
				"TEXCOORD_0":59
			},
			"indices":56,
			"material":3
		}]
	}],
	"accessors":[{
		"bufferView":0,
		"type":"SCALAR",
		"componentType":5123,
		"count":36,
		"byteOffset":0,
		"min":[0],
		"max":[35]
	},
	{
		"bufferView":1,
		"type":"VEC3",
		"componentType":5126,
		"count":36,
		"byteOffset":0,
		"min":[-0.5876845717430115,
		-0.522782027721405,
		-0.15459686517715455],
		"max":[0.5876845717430115,
		0.522782027721405,
		0.15459686517715455]
	},
	{
		"bufferView":1,
		"type":"VEC3",
		"componentType":5126,
		"count":36,
		"byteOffset":12,
		"min":[-1.0,
		-1.0,
		-1.0],
		"max":[1.0,
		1.0,
		1.0]
	},
	{
		"bufferView":1,
		"type":"VEC2",
		"componentType":5126,
		"count":36,
		"byteOffset":24,
		"min":[0.0,
		0.0],
		"max":[1.0,
		1.0]
	},
	{
		"bufferView":2,
		"type":"SCALAR",
		"componentType":5123,
		"count":36,
		"byteOffset":0,
		"min":[0],
		"max":[35]
	},
	{
		"bufferView":3,
		"type":"VEC3",
		"componentType":5126,
		"count":36,
		"byteOffset":0,
		"min":[-1.9573540687561036,
		-0.20633332431316377,
		-2.0930421352386476],
		"max":[1.9573540687561036,
		0.20633332431316377,
		2.0930421352386476]
	},
	{
		"bufferView":3,
		"type":"VEC3",
		"componentType":5126,
		"count":36,
		"byteOffset":12,
		"min":[-1.0,
		-1.0,
		-1.0],
		"max":[1.0,
		1.0,
		1.0]
	},
	{
		"bufferView":3,
		"type":"VEC2",
		"componentType":5126,
		"count":36,
		"byteOffset":24,
		"min":[0.0,
		0.0],
		"max":[1.0,
		1.0]
	},
	{
		"bufferView":4,
		"type":"SCALAR",
		"componentType":5123,
		"count":36,
		"byteOffset":0,
		"min":[0],
		"max":[35]
	},
	{
		"bufferView":5,
		"type":"VEC3",
		"componentType":5126,
		"count":36,
		"byteOffset":0,
		"min":[-1.7942432165145875,
		-0.20633332431316377,
		-1.792992353439331],
		"max":[1.7942432165145875,
		0.20633332431316377,
		1.792992353439331]
	},
	{
		"bufferView":5,
		"type":"VEC3",
		"componentType":5126,
		"count":36,
		"byteOffset":12,
		"min":[-1.0,
		-1.0,
		-1.0],
		"max":[1.0,
		1.0,
		1.0]
	},
	{
		"bufferView":5,
		"type":"VEC2",
		"componentType":5126,
		"count":36,
		"byteOffset":24,
		"min":[0.0,
		0.0],
		"max":[1.0,
		1.0]
	},
	{
		"bufferView":6,
		"type":"SCALAR",
		"componentType":5123,
		"count":36,
		"byteOffset":0,
		"min":[0],
		"max":[35]
	},
	{
		"bufferView":7,
		"type":"VEC3",
		"componentType":5126,
		"count":36,
		"byteOffset":0,
		"min":[-1.5873889923095704,
		-0.20633332431316377,
		-1.4669790267944337],
		"max":[1.5873889923095704,
		0.20633332431316377,
		1.4669790267944337]
	},
	{
		"bufferView":7,
		"type":"VEC3",
		"componentType":5126,
		"count":36,
		"byteOffset":12,
		"min":[-1.0,
		-1.0,
		-1.0],
		"max":[1.0,
		1.0,
		1.0]
	},
	{
		"bufferView":7,
		"type":"VEC2",
		"componentType":5126,
		"count":36,
		"byteOffset":24,
		"min":[0.0,
		0.0],
		"max":[1.0,
		1.0]
	},
	{
		"bufferView":8,
		"type":"SCALAR",
		"componentType":5123,
		"count":36,
		"byteOffset":0,
		"min":[0],
		"max":[35]
	},
	{
		"bufferView":9,
		"type":"VEC3",
		"componentType":5126,
		"count":36,
		"byteOffset":0,
		"min":[-0.9799339175224304,
		-0.23278407752513886,
		-0.242862731218338],
		"max":[0.9799339175224304,
		0.23278407752513886,
		0.242862731218338]
	},
	{
		"bufferView":9,
		"type":"VEC3",
		"componentType":5126,
		"count":36,
		"byteOffset":12,
		"min":[-1.0,
		-1.0,
		-1.0],
		"max":[1.0,
		1.0,
		1.0]
	},
	{
		"bufferView":9,
		"type":"VEC2",
		"componentType":5126,
		"count":36,
		"byteOffset":24,
		"min":[0.0,
		0.0],
		"max":[1.0,
		1.0]
	},
	{
		"bufferView":10,
		"type":"SCALAR",
		"componentType":5123,
		"count":36,
		"byteOffset":0,
		"min":[0],
		"max":[35]
	},
	{
		"bufferView":11,
		"type":"VEC3",
		"componentType":5126,
		"count":36,
		"byteOffset":0,
		"min":[-0.9393041133880615,
		-0.2125362753868103,
		-0.24353232979774476],
		"max":[0.9393041133880615,
		0.2125362753868103,
		0.24353232979774476]
	},
	{
		"bufferView":11,
		"type":"VEC3",
		"componentType":5126,
		"count":36,
		"byteOffset":12,
		"min":[-1.0,
		-1.0,
		-1.0],
		"max":[1.0,
		1.0,
		1.0]
	},
	{
		"bufferView":11,
		"type":"VEC2",
		"componentType":5126,
		"count":36,
		"byteOffset":24,
		"min":[0.0,
		0.0],
		"max":[1.0,
		1.0]
	},
	{
		"bufferView":12,
		"type":"SCALAR",
		"componentType":5123,
		"count":84,
		"byteOffset":0,
		"min":[0],
		"max":[83]
	},
	{
		"bufferView":13,
		"type":"VEC3",
		"componentType":5126,
		"count":84,
		"byteOffset":0,
		"min":[-1.0225902795791627,
		0.04690670594573021,
		-0.8433719873428345],
		"max":[0.9340071678161621,
		1.8762258291244507,
		0.27329468727111819]
	},
	{
		"bufferView":13,
		"type":"VEC3",
		"componentType":5126,
		"count":84,
		"byteOffset":12,
		"min":[-1.0,
		-1.0,
		-1.0],
		"max":[1.0,
		1.0,
		1.0]
	},
	{
		"bufferView":13,
		"type":"VEC2",
		"componentType":5126,
		"count":84,
		"byteOffset":24,
		"min":[0.0,
		0.0],
		"max":[1.0,
		1.0]
	},
	{
		"bufferView":14,
		"type":"SCALAR",
		"componentType":5123,
		"count":84,
		"byteOffset":0,
		"min":[0],
		"max":[83]
	},
	{
		"bufferView":15,
		"type":"VEC3",
		"componentType":5126,
		"count":84,
		"byteOffset":0,
		"min":[2.646561861038208,
		-1.6484582424163819,
		-5.3458943367004398],
		"max":[7.320029258728027,
		-1.1558074951171876,
		3.298184394836426]
	},
	{
		"bufferView":15,
		"type":"VEC3",
		"componentType":5126,
		"count":84,
		"byteOffset":12,
		"min":[-1.0,
		-1.0,
		-1.0],
		"max":[1.0,
		1.0,
		1.0]
	},
	{
		"bufferView":15,
		"type":"VEC2",
		"componentType":5126,
		"count":84,
		"byteOffset":24,
		"min":[0.0,
		0.0],
		"max":[1.0,
		1.0]
	},
	{
		"bufferView":16,
		"type":"SCALAR",
		"componentType":5123,
		"count":60,
		"byteOffset":0,
		"min":[0],
		"max":[59]
	},
	{
		"bufferView":17,
		"type":"VEC3",
		"componentType":5126,
		"count":60,
		"byteOffset":0,
		"min":[-1.7040865421295167,
		-2.7976009845733644,
		-1.1000384092330933],
		"max":[1.7040865421295167,
		3.1873886585235597,
		1.1000384092330933]
	},
	{
		"bufferView":17,
		"type":"VEC3",
		"componentType":5126,
		"count":60,
		"byteOffset":12,
		"min":[-0.9970910549163818,
		-1.0,
		-0.9987849593162537],
		"max":[0.9970910549163818,
		1.0,
		0.9987849593162537]
	},
	{
		"bufferView":17,
		"type":"VEC2",
		"componentType":5126,
		"count":60,
		"byteOffset":24,
		"min":[0.0,
		-0.07285915315151215],
		"max":[1.0,
		1.0]
	},
	{
		"bufferView":18,
		"type":"SCALAR",
		"componentType":5123,
		"count":36,
		"byteOffset":0,
		"min":[0],
		"max":[35]
	},
	{
		"bufferView":19,
		"type":"VEC3",
		"componentType":5126,
		"count":36,
		"byteOffset":0,
		"min":[-0.9950031638145447,
		-0.17633412778377534,
		-0.9290045499801636],
		"max":[0.9950031638145447,
		0.17633412778377534,
		0.9290045499801636]
	},
	{
		"bufferView":19,
		"type":"VEC3",
		"componentType":5126,
		"count":36,
		"byteOffset":12,
		"min":[-1.0,
		-1.0,
		-1.0],
		"max":[1.0,
		1.0,
		1.0]
	},
	{
		"bufferView":19,
		"type":"VEC2",
		"componentType":5126,
		"count":36,
		"byteOffset":24,
		"min":[0.0,
		0.0],
		"max":[1.0,
		1.0]
	},
	{
		"bufferView":20,
		"type":"SCALAR",
		"componentType":5123,
		"count":36,
		"byteOffset":0,
		"min":[0],
		"max":[35]
	},
	{
		"bufferView":21,
		"type":"VEC3",
		"componentType":5126,
		"count":36,
		"byteOffset":0,
		"min":[-0.9393041133880615,
		-0.17817595601081849,
		-0.20416095852851869],
		"max":[0.9393041133880615,
		0.17817595601081849,
		0.20416095852851869]
	},
	{
		"bufferView":21,
		"type":"VEC3",
		"componentType":5126,
		"count":36,
		"byteOffset":12,
		"min":[-1.0,
		-1.0,
		-1.0],
		"max":[1.0,
		1.0,
		1.0]
	},
	{
		"bufferView":21,
		"type":"VEC2",
		"componentType":5126,
		"count":36,
		"byteOffset":24,
		"min":[0.0,
		0.0],
		"max":[1.0,
		1.0]
	},
	{
		"bufferView":22,
		"type":"SCALAR",
		"componentType":5123,
		"count":84,
		"byteOffset":0,
		"min":[0],
		"max":[83]
	},
	{
		"bufferView":23,
		"type":"VEC3",
		"componentType":5126,
		"count":84,
		"byteOffset":0,
		"min":[-1.2229384183883668,
		-0.8189506530761719,
		-0.7863631248474121],
		"max":[1.1221914291381837,
		3.239461660385132,
		0.7251192331314087]
	},
	{
		"bufferView":23,
		"type":"VEC3",
		"componentType":5126,
		"count":84,
		"byteOffset":12,
		"min":[-1.0,
		-1.0,
		-1.0],
		"max":[1.0,
		1.0,
		1.0]
	},
	{
		"bufferView":23,
		"type":"VEC2",
		"componentType":5126,
		"count":84,
		"byteOffset":24,
		"min":[0.0,
		0.0],
		"max":[1.0,
		1.0]
	},
	{
		"bufferView":24,
		"type":"SCALAR",
		"componentType":5123,
		"count":36,
		"byteOffset":0,
		"min":[0],
		"max":[35]
	},
	{
		"bufferView":25,
		"type":"VEC3",
		"componentType":5126,
		"count":36,
		"byteOffset":0,
		"min":[-0.8964958786964417,
		-0.07979745417833328,
		-0.7339626550674439],
		"max":[0.9002783298492432,
		0.07979745417833328,
		0.966724157333374]
	},
	{
		"bufferView":25,
		"type":"VEC3",
		"componentType":5126,
		"count":36,
		"byteOffset":12,
		"min":[-0.9797891974449158,
		-1.0,
		-0.9472771286964417],
		"max":[0.9807031750679016,
		1.0,
		0.9990480542182922]
	},
	{
		"bufferView":25,
		"type":"VEC2",
		"componentType":5126,
		"count":36,
		"byteOffset":24,
		"min":[0.0,
		0.0],
		"max":[1.0,
		1.0]
	},
	{
		"bufferView":26,
		"type":"SCALAR",
		"componentType":5123,
		"count":2718,
		"byteOffset":0,
		"min":[0],
		"max":[2717]
	},
	{
		"bufferView":27,
		"type":"VEC3",
		"componentType":5126,
		"count":2718,
		"byteOffset":0,
		"min":[-0.8668562173843384,
		-0.6951956748962402,
		0.4782449007034302],
		"max":[0.8629686236381531,
		0.9394280314445496,
		1.3981424570083619]
	},
	{
		"bufferView":27,
		"type":"VEC3",
		"componentType":5126,
		"count":2718,
		"byteOffset":12,
		"min":[-1.0,
		-0.9999088644981384,
		-0.9999799728393555],
		"max":[1.0,
		0.999970555305481,
		0.999923050403595]
	},
	{
		"bufferView":27,
		"type":"VEC2",
		"componentType":5126,
		"count":2718,
		"byteOffset":24,
		"min":[0.0,
		0.0],
		"max":[1.0,
		1.0]
	},
	{
		"bufferView":28,
		"type":"SCALAR",
		"componentType":5123,
		"count":252,
		"byteOffset":0,
		"min":[0],
		"max":[251]
	},
	{
		"bufferView":29,
		"type":"VEC3",
		"componentType":5126,
		"count":252,
		"byteOffset":0,
		"min":[-0.8255720734596252,
		0.37769654393196108,
		-2.9395968914031984],
		"max":[1.1644343137741089,
		1.4876731634140015,
		-1.313856840133667]
	},
	{
		"bufferView":29,
		"type":"VEC3",
		"componentType":5126,
		"count":252,
		"byteOffset":12,
		"min":[-1.0,
		-1.0,
		-1.0],
		"max":[1.0,
		1.0,
		1.0]
	},
	{
		"bufferView":29,
		"type":"VEC2",
		"componentType":5126,
		"count":252,
		"byteOffset":24,
		"min":[0.0,
		0.0],
		"max":[1.0,
		1.0]
	}],
	"bufferViews":[{
		"buffer":0,
		"target":34963,
		"byteOffset":0,
		"byteLength":72
	},
	{
		"buffer":0,
		"target":34962,
		"byteOffset":72,
		"byteLength":1152,
		"byteStride":32
	},
	{
		"buffer":1,
		"target":34963,
		"byteOffset":0,
		"byteLength":72
	},
	{
		"buffer":1,
		"target":34962,
		"byteOffset":72,
		"byteLength":1152,
		"byteStride":32
	},
	{
		"buffer":2,
		"target":34963,
		"byteOffset":0,
		"byteLength":72
	},
	{
		"buffer":2,
		"target":34962,
		"byteOffset":72,
		"byteLength":1152,
		"byteStride":32
	},
	{
		"buffer":3,
		"target":34963,
		"byteOffset":0,
		"byteLength":72
	},
	{
		"buffer":3,
		"target":34962,
		"byteOffset":72,
		"byteLength":1152,
		"byteStride":32
	},
	{
		"buffer":4,
		"target":34963,
		"byteOffset":0,
		"byteLength":72
	},
	{
		"buffer":4,
		"target":34962,
		"byteOffset":72,
		"byteLength":1152,
		"byteStride":32
	},
	{
		"buffer":5,
		"target":34963,
		"byteOffset":0,
		"byteLength":72
	},
	{
		"buffer":5,
		"target":34962,
		"byteOffset":72,
		"byteLength":1152,
		"byteStride":32
	},
	{
		"buffer":6,
		"target":34963,
		"byteOffset":0,
		"byteLength":168
	},
	{
		"buffer":6,
		"target":34962,
		"byteOffset":168,
		"byteLength":2688,
		"byteStride":32
	},
	{
		"buffer":7,
		"target":34963,
		"byteOffset":0,
		"byteLength":168
	},
	{
		"buffer":7,
		"target":34962,
		"byteOffset":168,
		"byteLength":2688,
		"byteStride":32
	},
	{
		"buffer":8,
		"target":34963,
		"byteOffset":0,
		"byteLength":120
	},
	{
		"buffer":8,
		"target":34962,
		"byteOffset":120,
		"byteLength":1920,
		"byteStride":32
	},
	{
		"buffer":9,
		"target":34963,
		"byteOffset":0,
		"byteLength":72
	},
	{
		"buffer":9,
		"target":34962,
		"byteOffset":72,
		"byteLength":1152,
		"byteStride":32
	},
	{
		"buffer":10,
		"target":34963,
		"byteOffset":0,
		"byteLength":72
	},
	{
		"buffer":10,
		"target":34962,
		"byteOffset":72,
		"byteLength":1152,
		"byteStride":32
	},
	{
		"buffer":11,
		"target":34963,
		"byteOffset":0,
		"byteLength":168
	},
	{
		"buffer":11,
		"target":34962,
		"byteOffset":168,
		"byteLength":2688,
		"byteStride":32
	},
	{
		"buffer":12,
		"target":34963,
		"byteOffset":0,
		"byteLength":72
	},
	{
		"buffer":12,
		"target":34962,
		"byteOffset":72,
		"byteLength":1152,
		"byteStride":32
	},
	{
		"buffer":13,
		"target":34963,
		"byteOffset":0,
		"byteLength":5436
	},
	{
		"buffer":13,
		"target":34962,
		"byteOffset":5436,
		"byteLength":86976,
		"byteStride":32
	},
	{
		"buffer":14,
		"target":34963,
		"byteOffset":0,
		"byteLength":504
	},
	{
		"buffer":14,
		"target":34962,
		"byteOffset":504,
		"byteLength":8064,
		"byteStride":32
	}],
	"buffers":[{
		"uri":"data:application/octet-stream;base64,",
		"byteLength":1224
	},
	{
		"uri":"data:application/octet-stream;base64,",
		"byteLength":1224
	},
	{
		"uri":"data:application/octet-stream;base64,",
		"byteLength":1224
	},
	{
		"uri":"data:application/octet-stream;base64,",
		"byteLength":1224
	},
	{
		"uri":"data:application/octet-stream;base64,",
		"byteLength":1224
	},
	{
		"uri":"data:application/octet-stream;base64,",
		"byteLength":1224
	},
	{
		"uri":"data:application/octet-stream;base64,",
		"byteLength":2856
	},
	{
		"uri":"data:application/octet-stream;base64,",
		"byteLength":2856
	},
	{
		"uri":"data:application/octet-stream;base64,",
		"byteLength":2040
	},
	{
		"uri":"data:application/octet-stream;base64,",
		"byteLength":1224
	},
	{
		"uri":"data:application/octet-stream;base64,",
		"byteLength":1224
	},
	{
		"uri":"data:application/octet-stream;base64,",
		"byteLength":2856
	},
	{
		"uri":"data:application/octet-stream;base64,",
		"byteLength":1224
	},
	{
		"uri":"data:application/octet-stream;base64,",
		"byteLength":92412
	},
	{
		"uri":"data:application/octet-stream;base64,",
		"byteLength":8568
	}],
	"images":[{
		"uri":"data:image/png;base64,"
	}],
	"textures":[{
		"sampler":0,
		"source":0
	}],
	"materials":[{
		"pbrMetallicRoughness":{
			"baseColorFactor":[0.76,
			0.76,
			0.76,
			1.0],
			"metallicFactor":0.44,
			"roughnessFactor":0.17
		},
		"emissiveFactor":[0.0,
		0.0,
		0.0],
		"alphaMode":"OPAQUE",
		"doubleSided":false,
		"name":"Mat.11"
	},
	{
		"pbrMetallicRoughness":{
			"baseColorFactor":[0.27,
			0.27,
			0.27,
			1.0],
			"metallicFactor":0.63,
			"roughnessFactor":0.32
		},
		"emissiveFactor":[0.0,
		0.0,
		0.0],
		"alphaMode":"OPAQUE",
		"doubleSided":false,
		"name":"Mat.11"
	},
	{
		"pbrMetallicRoughness":{
			"baseColorTexture":{
				"index":0
			},
			"baseColorFactor":[1.0,
			1.0,
			1.0,
			1.0],
			"metallicFactor":1.0,
			"roughnessFactor":1.0
		},
		"emissiveFactor":[0.0,
		0.0,
		0.0],
		"alphaMode":"OPAQUE",
		"doubleSided":false,
		"name":"Mat.8"
	},
	{
		"pbrMetallicRoughness":{
			"baseColorFactor":[0.16,
			0.13760000000000004,
			0.13760000000000004,
			1.0],
			"metallicFactor":0.63,
			"roughnessFactor":0.32
		},
		"emissiveFactor":[0.0,
		0.0,
		0.0],
		"alphaMode":"OPAQUE",
		"doubleSided":false,
		"name":"Mat.11"
	}]
}