{
	"asset":{
		"version":"2.0",
		"generator":"Maxon Cinema 4D 2024.4.0 (#200000219)"
	},
	"scenes":[{
		"nodes":[0]
	}],
	"nodes":[{
		"name":"Sphere.2",
		"mesh":0,
		"translation":[0.22963610291481019,
		0.044951487332582477,
		0.11308726668357849],
		"rotation":[0.0,
		0.0,
		0.0,
		-1.0],
		"scale":[1.0,
		1.0,
		1.0]
	}],
	"meshes":[{
		"name":"Sphere.2",
		"primitives":[{
			"attributes":{
				"POSITION":1,
				"NORMAL":2,
				"TEXCOORD_0":3
			},
			"indices":0,
			"material":0
		}]
	}],
	"accessors":[{
		"bufferView":0,
		"componentType":5123,
		"type":"SCALAR",
		"count":2880,
		"byteOffset":0,
		"min":[0],
		"max":[2879]
	},
	{
		"bufferView":1,
		"componentType":5126,
		"type":"VEC3",
		"count":2880,
		"byteOffset":0,
		"min":[-1.1924325227737427,
		-1.1924325227737427,
		-1.1924325227737427],
		"max":[1.1924325227737427,
		1.1924325227737427,
		1.1924325227737427]
	},
	{
		"bufferView":1,
		"componentType":5126,
		"type":"VEC3",
		"count":2880,
		"byteOffset":12,
		"min":[-1.0,
		-1.0,
		-1.0],
		"max":[1.0,
		1.0,
		1.0]
	},
	{
		"bufferView":1,
		"componentType":5126,
		"type":"VEC2",
		"count":2880,
		"byteOffset":24,
		"min":[0.0,
		0.0],
		"max":[1.0,
		1.0]
	}],
	"bufferViews":[{
		"buffer":0,
		"byteOffset":0,
		"byteLength":5760,
		"target":34963
	},
	{
		"buffer":0,
		"byteOffset":5760,
		"byteLength":92160,
		"target":34962,
		"byteStride":32
	}],
	"buffers":[{
		"uri":"data:application/octet-stream;base64,",
		"byteLength":97920
	}],
	"materials":[{
		"alphaMode":"OPAQUE",
		"pbrMetallicRoughness":{
			"baseColorFactor":[0.9213375234962409,
			0.21337523496240605,
			0.37647058823529408,
			1.0],
			"metallicFactor":1.0,
			"roughnessFactor":0.20000000298023225
		},
		"emissiveFactor":[0.0,
		0.0,
		0.0],
		"doubleSided":false,
		"name":"Mat"
	}]
}