{
	"asset":{
		"version":"2.0",
		"generator":"Maxon Cinema 4D 2024.4.0 (#200000219)"
	},
	"scenes":[{
		"nodes":[0]
	}],
	"nodes":[{
		"name":"Cube",
		"mesh":0
	}],
	"meshes":[{
		"name":"Cube",
		"primitives":[{
			"attributes":{
				"POSITION":1,
				"NORMAL":2,
				"TEXCOORD_0":3
			},
			"indices":0,
			"material":0
		}]
	}],
	"accessors":[{
		"bufferView":0,
		"max":[4115],
		"type":"SCALAR",
		"componentType":5123,
		"count":4116,
		"byteOffset":0,
		"min":[0]
	},
	{
		"bufferView":1,
		"max":[0.0430000014603138,
		0.027000000700354577,
		0.0010000000474974514],
		"type":"VEC3",
		"componentType":5126,
		"count":4116,
		"byteOffset":0,
		"min":[-0.0430000014603138,
		-0.027000000700354577,
		-0.0010000000474974514]
	},
	{
		"bufferView":1,
		"max":[0.9990493655204773,
		0.9988430738449097,
		0.9981032609939575],
		"type":"VEC3",
		"componentType":5126,
		"count":4116,
		"byteOffset":12,
		"min":[-0.9990493655204773,
		-0.9988430738449097,
		-0.9981032609939575]
	},
	{
		"bufferView":1,
		"max":[0.9875283241271973,
		0.9963234663009644],
		"type":"VEC2",
		"componentType":5126,
		"count":4116,
		"byteOffset":24,
		"min":[0.012471655383706093,
		0.0036764703691005708]
	}],
	"bufferViews":[{
		"buffer":0,
		"byteOffset":0,
		"byteLength":8232,
		"target":34963
	},
	{
		"buffer":0,
		"byteOffset":8232,
		"byteLength":131712,
		"target":34962,
		"byteStride":32
	}],
	"buffers":[{
		"uri":"data:application/octet-stream;base64,",
		"byteLength":139944
	}],
	"images":[{
		"uri":"data:image/png;base64,"
	}],
	"samplers":[{
		"magFilter":9729,
		"minFilter":9729,
		"wrapS":10497,
		"wrapT":10497
	}],
	"textures":[{
		"sampler":0,
		"source":0
	}],
	"materials":[{
		"pbrMetallicRoughness":{
			"metallicFactor":0.0,
			"baseColorTexture":{
				"index":0
			},
			"baseColorFactor":[1.0,
			1.0,
			1.0,
			1.0],
			"roughnessFactor":0.20000000298023225
		},
		"emissiveFactor":[0.0,
		0.0,
		0.0],
		"alphaMode":"OPAQUE",
		"doubleSided":false,
		"name":"Mat"
	}]
}